<svg width="16" height="16" viewBox="0 0 16 16" fill="none" xmlns="http://www.w3.org/2000/svg">
<path d="M8 10.4C12 10.4 14.4 12.36 14.4 13V14.4H1.6V13C1.6 12.36 4 10.4 8 10.4ZM8 9C5.33 9 0 10.34 0 13V16H16V13C16 10.34 10.67 9 8 9Z" fill="#A5A8B1"/>
<path fill-rule="evenodd" clip-rule="evenodd" d="M8 0C5.79 0 4 1.79 4 4C4 6.21 5.79 8 8 8C10.21 8 12 6.21 12 4C12 1.79 10.21 0 8 0ZM8 6.4C9.32549 6.4 10.4 5.32548 10.4 4C10.4 2.67452 9.32549 1.6 8 1.6C6.67451 1.6 5.6 2.67452 5.6 4C5.6 5.32548 6.67451 6.4 8 6.4Z" fill="#A5A8B1"/>
</svg>
