<svg width="20" height="16" viewBox="0 0 20 16" fill="none" xmlns="http://www.w3.org/2000/svg">
<rect width="6" height="2" fill="#A5A8B1"/>
<path d="M16.7302 9.2922C16.4815 9.04327 16.4815 8.63968 16.7302 8.39075C16.9789 8.14182 17.3822 8.14182 17.631 8.39075L19.8128 10.9117C20.0615 11.1606 20.0615 11.5642 19.8128 11.8131C19.564 12.062 19.1607 12.062 18.912 11.8131L16.7302 9.2922Z" fill="#A5A8B1"/>
<path fill-rule="evenodd" clip-rule="evenodd" d="M13.8635 10C16.6876 10 18.9769 7.76142 18.9769 5C18.9769 2.23858 16.6876 0 13.8635 0C11.0394 0 8.75 2.23858 8.75 5C8.75 7.76142 11.0394 10 13.8635 10ZM13.8635 8C15.5579 8 16.9316 6.65685 16.9316 5C16.9316 3.34315 15.5579 2 13.8635 2C12.169 2 10.7954 3.34315 10.7954 5C10.7954 6.65685 12.169 8 13.8635 8Z" fill="#A5A8B1"/>
<rect y="7" width="6" height="2" fill="#A5A8B1"/>
<rect y="14" width="13" height="2" fill="#A5A8B1"/>
</svg>
