<svg width="26" height="18" viewBox="0 0 26 18" fill="none" xmlns="http://www.w3.org/2000/svg">
<path d="M26 15.0793V9.16552C25.9998 8.56455 25.8343 7.9742 25.5201 7.4546L24.1565 5.18804C23.6697 4.37815 22.7707 3.87885 21.7976 3.87792H16.7579V2.09624C16.7579 1.54024 16.5281 1.00711 16.1189 0.613933C15.7097 0.220788 15.1549 0 14.5762 0H2.1817C1.60302 0 1.04816 0.220793 0.63896 0.613933C0.229979 1.00708 0 1.54024 0 2.09624V13.5074C0 14.0634 0.229984 14.5965 0.63896 14.9897C1.04813 15.3827 1.60302 15.6037 2.1817 15.6037H3.52336C3.69228 16.5069 4.29453 17.2808 5.14864 17.6918C6.00255 18.1027 7.0083 18.1027 7.8624 17.6918C8.71631 17.2808 9.31875 16.5069 9.48749 15.6037H17.8922C18.0609 16.5069 18.6634 17.2808 19.5173 17.6918C20.3714 18.1027 21.3771 18.1027 22.231 17.6918C23.0851 17.2808 23.6874 16.5069 23.8563 15.6037H25.9998L26 15.0793ZM21.792 4.93383C22.376 4.93438 22.9155 5.23394 23.2075 5.71976L24.5274 7.90242H16.7578V4.93383H21.792ZM3.52076 14.5581H2.18177C1.89244 14.5581 1.61508 14.4475 1.4104 14.251C1.20591 14.0545 1.09101 13.7879 1.09101 13.5099V2.10151C1.09101 1.82351 1.20591 1.55701 1.4104 1.36035C1.61508 1.16387 1.89243 1.05347 2.18177 1.05347H14.5763C14.8656 1.05347 15.1431 1.16387 15.3476 1.36035C15.5521 1.55701 15.6672 1.8235 15.6672 2.10151V14.5556H9.48749C9.31876 13.6523 8.71631 12.8785 7.8624 12.4674C7.0083 12.0566 6.0026 12.0566 5.14864 12.4674C4.29453 12.8785 3.69229 13.6523 3.52336 14.5556L3.52076 14.5581ZM6.50426 16.9504V16.9502C5.98835 16.9502 5.49359 16.7534 5.12894 16.4028C4.76428 16.0523 4.55962 15.5769 4.55976 15.0812C4.55995 14.5855 4.76521 14.1103 5.13026 13.7601C5.4953 13.4099 5.99006 13.2134 6.50596 13.2138C7.02186 13.2144 7.51643 13.4118 7.88069 13.7627C8.24497 14.1134 8.44928 14.589 8.4485 15.0847C8.44717 15.5792 8.24154 16.0532 7.87709 16.4023C7.51261 16.7515 7.01899 16.9477 6.50426 16.9477V16.9504ZM17.8926 14.5553H16.7581V8.94565H24.8931C24.8931 9.01895 24.9094 9.09242 24.9094 9.16571V14.5555H23.8569C23.688 13.6522 23.0857 12.8783 22.2316 12.4673C21.3777 12.0564 20.372 12.0564 19.5179 12.4673C18.664 12.8783 18.0615 13.6522 17.8928 14.5555L17.8926 14.5553ZM20.8761 16.9476H20.876C20.3603 16.9484 19.8651 16.7521 19.5001 16.4021C19.1348 16.0519 18.9294 15.5768 18.9288 15.0812C18.9285 14.5855 19.1329 14.1101 19.4974 13.7594C19.8619 13.4086 20.3565 13.2114 20.8724 13.2112C21.3883 13.211 21.883 13.4077 22.2479 13.7581C22.6127 14.1085 22.8178 14.5839 22.8178 15.0796C22.8178 15.5749 22.6129 16.0501 22.2483 16.4004C21.8836 16.7508 21.389 16.9476 20.8733 16.9476H20.8761Z" fill="#C5C4C3"/>
<path d="M12.9026 6.9909C12.9026 5.85751 12.4339 4.77057 11.5998 3.96911C10.7656 3.16764 9.63439 2.71729 8.45479 2.71729C7.27519 2.71729 6.14375 3.16764 5.30962 3.96911C4.47548 4.77057 4.00696 5.85751 4.00696 6.9909C4.00696 8.12449 4.47548 9.21142 5.30962 10.0129C6.14375 10.8144 7.27519 11.2645 8.45479 11.2645C9.634 11.2632 10.7645 10.8125 11.5983 10.0113C12.432 9.21016 12.9011 8.12393 12.9026 6.9909ZM5.09252 6.9909C5.09252 6.13591 5.44596 5.31559 6.07504 4.71082C6.70431 4.10602 7.55764 3.7659 8.44773 3.76552C9.33758 3.76498 10.1915 4.1042 10.8213 4.70825C11.4512 5.3125 11.8056 6.13226 11.8065 6.98744C11.8074 7.84262 11.455 8.66309 10.8265 9.26865C10.198 9.87416 9.34498 10.2151 8.45494 10.2165C7.56392 10.2173 6.70904 9.87784 6.07845 9.27286C5.44787 8.66786 5.09311 7.84721 5.09252 6.9909Z" fill="#C5C4C3"/>
<path d="M10.3604 7.11619C10.3604 6.97728 10.303 6.84404 10.2006 6.7457C10.0983 6.64737 9.95961 6.59218 9.81504 6.59218H8.95865V5.38167C8.95865 5.09215 8.7144 4.85767 8.41328 4.85767C8.11197 4.85767 7.86792 5.09216 7.86792 5.38167V7.11365C7.86792 7.25274 7.92537 7.38598 8.02752 7.48413C8.12986 7.58247 8.26853 7.63766 8.41329 7.63766H9.81505C10.115 7.63766 10.3589 7.40462 10.3604 7.11619Z" fill="#C5C4C3"/>
</svg>
