<svg width="26" height="18" viewBox="0 0 26 18" fill="none" xmlns="http://www.w3.org/2000/svg">
<path d="M25.9999 4.64579C25.9993 4.23128 25.8833 3.81072 25.6265 3.46417L23.5665 0.695483C23.2215 0.235299 22.6964 0.00110825 22.1717 0C21.8595 0 21.5415 0.0841997 21.2606 0.268186L19.2519 1.5808C19.0407 1.72236 18.6784 1.81933 18.3286 1.81695C18.0568 1.81825 17.7943 1.76111 17.6207 1.67106L15.6537 0.670364C15.3363 0.509973 14.9827 0.44417 14.627 0.443517C14.1161 0.445898 13.5988 0.577937 13.1832 0.880539L12.9536 1.04959C12.7702 0.953484 12.4897 0.806945 12.1721 0.640924C11.7913 0.444813 11.3435 0.36559 10.8911 0.364077C10.4825 0.365376 10.074 0.431393 9.71523 0.590704L8.37545 1.19115C8.15742 1.29051 7.81058 1.35522 7.46602 1.35371C7.12145 1.35523 6.77522 1.29051 6.55717 1.19115L5.21618 0.590482C4.97156 0.480954 4.71004 0.433985 4.45099 0.433769C4.15258 0.433986 3.85604 0.495893 3.58028 0.613212C3.30495 0.73118 3.04944 0.905208 2.84579 1.14417L0.40434 4.0161C0.133753 4.33321 -0.000615144 4.73303 2.11695e-06 5.12651C-0.000616094 5.59579 0.190631 6.06636 0.559336 6.39623L2.83698 8.43719L1.7563 9.62097C1.45851 9.94738 1.31013 10.3708 1.31013 10.7894C1.30951 11.2346 1.47788 11.6844 1.81153 12.0154L2.0308 12.2342C2.2373 12.4399 2.48542 12.5708 2.74508 12.6407C2.61483 12.8925 2.54353 13.1682 2.54415 13.4447C2.54353 13.8903 2.7119 14.3397 3.04493 14.6711L3.04431 14.6709L3.26421 14.8906C3.57704 15.2021 3.98281 15.3573 4.3824 15.3571C4.59714 15.3573 4.81229 15.312 5.01427 15.2233C5.08517 15.5255 5.23169 15.8129 5.46209 16.0426L5.68199 16.2623C5.99482 16.5737 6.39996 16.7289 6.80018 16.7287C7.11302 16.7289 7.42752 16.6322 7.69811 16.4441C7.77725 16.7116 7.91285 16.9651 8.11935 17.1712L8.33924 17.3909C8.65146 17.7023 9.05722 17.8575 9.45685 17.8573C9.88262 17.8575 10.3125 17.682 10.6301 17.3339L11.5849 16.2867L12.8822 17.5478C13.1927 17.8504 13.5913 18.0009 13.9847 18C14.4169 18.0009 14.8529 17.819 15.1711 17.4612L15.3782 17.2281C15.5569 17.0264 15.6738 16.7878 15.7413 16.5387L16.244 17.026C16.5552 17.3273 16.9531 17.4771 17.3459 17.4768C17.7787 17.4771 18.216 17.2952 18.5344 16.9372L18.7403 16.7045C18.9781 16.4376 19.1118 16.1071 19.1533 15.7697C19.286 15.8054 19.4203 15.8296 19.5559 15.8296C19.9887 15.8296 20.4248 15.648 20.7436 15.2902L20.9501 15.0575C21.2388 14.7326 21.3823 14.3159 21.3817 13.9051C21.3817 13.7776 21.3641 13.6506 21.3373 13.5252C21.6963 13.4752 22.0444 13.307 22.309 13.0086L22.5161 12.7754C22.8049 12.4505 22.9477 12.0338 22.9477 11.6226C22.9483 11.1702 22.7746 10.7137 22.4319 10.381L22.0446 10.0052L25.5402 5.94582C25.8547 5.57958 25.9994 5.10898 26 4.64579L25.9999 4.64579ZM2.42161 11.3468C2.26973 11.196 2.19471 10.9953 2.19409 10.7893C2.19471 10.596 2.26066 10.4072 2.39626 10.2587L4.60917 7.83333C4.75343 7.67532 4.9457 7.59632 5.14312 7.59588C5.32778 7.59609 5.50831 7.66601 5.65091 7.80714L5.86957 8.02619C5.86957 8.02619 6.09585 8.37772 6.09647 8.58419C6.09585 8.73875 6.05154 8.88918 5.9656 9.01949C5.95818 9.02728 3.57728 11.6336 3.57728 11.6336C3.45074 11.7276 3.30133 11.7761 3.14924 11.7767C2.96397 11.7761 2.78282 11.7066 2.64145 11.5657L2.42161 11.3468ZM4.38292 14.4326C4.19765 14.4324 4.01712 14.3625 3.87513 14.2216L3.65523 14.0021L3.65462 14.0019C3.50397 13.8517 3.42833 13.6504 3.42833 13.4443C3.42833 13.251 3.4949 13.0623 3.62988 12.9138C3.62988 12.9138 6.57955 9.68886 6.60429 9.65766C6.74525 9.51523 6.92681 9.44164 7.11456 9.44142C7.29982 9.44164 7.48036 9.51133 7.62235 9.65246L7.84224 9.87216C7.99351 10.0224 8.06852 10.2235 8.06914 10.4297C8.06852 10.623 8.00216 10.812 7.86697 10.9607L4.91604 14.1961C4.7724 14.3532 4.58033 14.432 4.38293 14.4326H4.38292ZM6.80089 15.8043C6.61563 15.8041 6.43509 15.7342 6.2931 15.5931L6.0728 15.3736C5.92153 15.2232 5.8459 15.0221 5.8459 14.816C5.8459 14.6435 5.90175 14.4762 6.0087 14.337L8.06297 12.085C8.20146 11.9538 8.37519 11.8846 8.5551 11.8846C8.74037 11.8848 8.9209 11.9545 9.06289 12.0956L9.28319 12.3153C9.43384 12.4655 9.50947 12.6666 9.51009 12.8727C9.50947 13.0664 9.4425 13.2554 9.30793 13.4037L7.33385 15.5673C7.19041 15.7249 6.99834 15.8037 6.80089 15.8044V15.8043ZM9.99045 16.6957C9.8468 16.8533 9.65453 16.9321 9.45712 16.9327C9.27185 16.9325 9.09132 16.8626 8.94933 16.7215L8.72944 16.502C8.57879 16.3518 8.50316 16.1504 8.50254 15.9444C8.50316 15.7507 8.56952 15.5617 8.70471 15.4139L9.95047 14.0476C10.0947 13.89 10.287 13.8108 10.4844 13.8106C10.6691 13.8108 10.8502 13.8805 10.9922 14.0219L11.2125 14.2414C11.3632 14.3916 11.4382 14.5927 11.4388 14.7987C11.4382 14.9925 11.3718 15.1814 11.2366 15.3297L9.99045 16.6957ZM21.8693 12.1462L21.6628 12.3789C21.5185 12.5408 21.323 12.6228 21.1227 12.6231C20.9409 12.6228 20.7631 12.5557 20.6219 12.4185L17.1417 9.03812L16.54 9.71499L20.2651 13.3397C20.4203 13.4906 20.4982 13.6954 20.4995 13.9045C20.4982 14.0949 20.4341 14.2807 20.3033 14.4283L20.0974 14.661C19.9531 14.8229 19.7576 14.9045 19.5573 14.9051C19.3755 14.9045 19.197 14.8372 19.0571 14.701L15.5757 11.3206L14.9746 11.9975L18.064 14.9982C18.213 15.148 18.289 15.3475 18.289 15.5523C18.289 15.7421 18.2249 15.9281 18.0941 16.0755L17.8876 16.3082C17.7439 16.4701 17.5477 16.5521 17.347 16.5528C17.1646 16.5521 16.9868 16.4848 16.8462 16.3486L13.763 13.3588H13.7624L13.7618 13.3581L13.1617 14.036L13.1623 14.0367L13.1739 14.0481L14.7181 15.5452C14.8549 15.6928 14.9258 15.8822 14.9264 16.0779C14.9258 16.2668 14.8623 16.4517 14.7315 16.5991L14.525 16.8322C14.3807 16.9941 14.1857 17.0755 13.986 17.0762C13.8043 17.0755 13.6264 17.0084 13.4859 16.8716L12.1414 15.564C12.2585 15.3228 12.3238 15.0614 12.3238 14.7988C12.3244 14.3535 12.156 13.9044 11.823 13.5728L11.6027 13.3531C11.2905 13.0418 10.8853 12.8864 10.4857 12.887C10.4546 12.887 10.4235 12.8944 10.393 12.8964C10.393 12.8886 10.3948 12.8806 10.3948 12.8728C10.3955 12.4275 9.89406 11.6461 9.89406 11.6461L9.67417 11.427C9.44047 11.1944 9.15546 11.0491 8.8587 10.9907C8.9199 10.8088 8.95432 10.6194 8.95432 10.4298C8.95432 9.98459 8.78656 9.5352 8.45353 9.20384L8.23364 8.98413C7.92081 8.67266 7.51567 8.51702 7.11603 8.51746C7.06925 8.51746 7.02329 8.52741 6.97692 8.53174C6.96415 8.10402 6.80031 7.67673 6.48109 7.35855V7.35833L6.26182 7.1395C5.94898 6.82758 5.54384 6.67217 5.14421 6.67238C4.71782 6.67217 4.28853 6.84771 3.97099 7.19577L3.44857 7.76829L1.13468 5.69553C0.968374 5.54596 0.885318 5.33925 0.884701 5.12711C0.885319 4.9494 0.942818 4.77515 1.06585 4.63056L3.5073 1.75864C3.60416 1.64435 3.7476 1.5411 3.91535 1.46945C4.0831 1.39781 4.27373 1.35841 4.45179 1.35863C4.60697 1.35863 4.75246 1.38807 4.8689 1.44088L6.20925 2.04156C6.58721 2.20887 7.02578 2.27749 7.46657 2.27901C7.908 2.27749 8.34614 2.20888 8.72388 2.04156L10.0637 1.44111C10.2702 1.34652 10.582 1.28786 10.8917 1.28915C11.2344 1.28699 11.5777 1.36145 11.7768 1.46816C11.9033 1.53418 12.0233 1.59695 12.1345 1.65561L10.7682 2.66451C10.3293 2.98876 10.0925 3.50456 10.0931 4.02494C10.0925 4.36932 10.1966 4.71998 10.408 5.0176L10.4074 5.01695L10.5879 5.27172C10.9306 5.75031 11.465 5.99619 11.9992 5.99752C12.3009 5.99752 12.6082 5.91743 12.882 5.74491L13.6991 5.22953C13.8658 5.12239 14.1175 5.05486 14.3777 5.05615C14.6836 5.05421 14.9917 5.14923 15.1769 5.2923L17.4377 6.99475C17.9407 7.37332 18.7603 8.07551 19.2145 8.51748L21.8312 11.0586C21.9864 11.2097 22.0643 11.4136 22.0649 11.6232C22.0651 11.8126 22.0004 11.9985 21.8693 12.1461L21.8693 12.1462ZM24.8845 5.32714L21.3986 9.3757L19.8159 7.83911C19.32 7.35836 18.5027 6.65749 17.9543 6.24383L15.6942 4.54139C15.3111 4.25632 14.8419 4.13294 14.378 4.13121C13.9833 4.13251 13.5855 4.22277 13.2423 4.43749L12.4257 4.95288C12.3004 5.0321 12.1527 5.07236 11.9993 5.07258C11.7253 5.07344 11.4508 4.93924 11.2976 4.7204L11.1177 4.46585L11.1171 4.4652C11.0215 4.3297 10.9767 4.17753 10.9761 4.02363C10.9774 3.79094 11.0796 3.56496 11.2774 3.41819L13.6935 1.63524C13.9025 1.47636 14.2741 1.36488 14.6271 1.3677C14.8723 1.3664 15.1066 1.41835 15.267 1.50147L17.234 2.50216C17.5693 2.67122 17.9479 2.74048 18.3285 2.74135C18.8178 2.73897 19.3124 2.62706 19.7198 2.36428L21.7291 1.05128C21.8573 0.967081 22.0113 0.923787 22.1718 0.923787C22.443 0.923138 22.7148 1.05236 22.8688 1.26297L24.9288 4.03166C25.0475 4.19032 25.1163 4.41392 25.1163 4.64574C25.1172 4.90549 25.03 5.16048 24.8845 5.32715L24.8845 5.32714Z" fill="#C5C4C3"/>
</svg>
