<svg width="24" height="18" viewBox="0 0 24 18" fill="none" xmlns="http://www.w3.org/2000/svg">
<path d="M23.6838 3.11464C23.3821 2.69763 22.9024 2.45239 22.3931 2.45468H6.63493L6.25388 1.1673C6.15468 0.829814 5.95086 0.533985 5.67293 0.323789C5.39499 0.113382 5.05753 0 4.71112 0H2.83297C2.5365 0 2.29639 0.244268 2.29639 0.545411C2.29639 0.846753 2.53651 1.09102 2.83297 1.09102H4.71112C4.94788 1.09178 5.15619 1.25025 5.22355 1.48101L5.71988 3.15552L8.04612 11.0428H8.0463C7.50072 11.2617 7.08727 11.7273 6.92858 12.3012C6.76969 12.875 6.88367 13.4914 7.23684 13.9674C7.58983 14.4433 8.14139 14.7245 8.72776 14.7273H9.28848C9.09721 15.058 8.99614 15.4345 8.99614 15.8182C8.99614 16.5976 9.40527 17.318 10.0693 17.7076C10.7335 18.0975 11.5516 18.0975 12.2159 17.7076C12.8799 17.318 13.289 16.5976 13.289 15.8182C13.29 15.4348 13.1898 15.0582 12.9993 14.7273H16.8013C16.6098 15.058 16.509 15.4345 16.5088 15.8182C16.5088 16.5976 16.9179 17.318 17.5821 17.7076C18.2461 18.0975 19.0645 18.0975 19.7287 17.7076C20.3927 17.318 20.8018 16.5976 20.8018 15.8182C20.8028 15.4348 20.7026 15.0582 20.5121 14.7273H21.3384C21.6349 14.7273 21.875 14.4831 21.875 14.1817C21.875 13.8806 21.6349 13.6363 21.3384 13.6363H8.72766C8.44018 13.6363 8.17441 13.4803 8.03048 13.2273C7.88674 12.9741 7.88674 12.6623 8.03048 12.4091C8.17441 12.1559 8.44017 12.0001 8.72766 12.0001H20.5335C20.8794 11.9997 21.2157 11.8863 21.493 11.6765C21.7704 11.4668 21.974 11.172 22.0736 10.8354L23.9276 4.5626H23.9278C24.0796 4.06818 23.9888 3.52939 23.6835 3.1145L23.6838 3.11464ZM12.2163 15.8185C12.2163 16.1078 12.1032 16.3852 11.9018 16.5899C11.7006 16.7944 11.4276 16.9093 11.1429 16.9093C10.8584 16.9093 10.5853 16.7944 10.3841 16.5899C10.1827 16.3852 10.0697 16.1079 10.0697 15.8185C10.0697 15.5291 10.1827 15.2517 10.3841 15.0471C10.5853 14.8425 10.8584 14.7276 11.1429 14.7276C11.4275 14.7276 11.7006 14.8425 11.9018 15.0471C12.1032 15.2518 12.2163 15.5291 12.2163 15.8185ZM19.729 15.8185C19.729 16.1078 19.616 16.3852 19.4146 16.5899C19.2134 16.7944 18.9403 16.9093 18.6557 16.9093C18.371 16.9093 18.0981 16.7944 17.8967 16.5899C17.6955 16.3852 17.5825 16.1079 17.5825 15.8185C17.5825 15.5291 17.6955 15.2517 17.8967 15.0471C18.0981 14.8425 18.371 14.7276 18.6557 14.7276C18.9403 14.7276 19.2134 14.8425 19.4146 15.0471C19.616 15.2518 19.729 15.5291 19.729 15.8185ZM22.9059 4.24647L21.0545 10.5193C20.9869 10.75 20.7788 10.9085 20.5419 10.9092H9.128L6.95471 3.54554H22.3933C22.5625 3.54612 22.7214 3.62773 22.8221 3.76565C22.923 3.90358 22.954 4.08164 22.9059 4.24639L22.9059 4.24647Z" fill="#C5C4C3"/>
<path d="M4.29252 5.45459H2.14596C1.84949 5.45459 1.60938 5.69886 1.60938 6C1.60938 6.30134 1.8495 6.54561 2.14596 6.54561H4.29252C4.58879 6.54561 4.8291 6.30134 4.8291 6C4.8291 5.69885 4.58878 5.45459 4.29252 5.45459Z" fill="#C5C4C3"/>
<path d="M3.21973 8.72755C3.21973 8.58296 3.16321 8.44428 3.06252 8.34193C2.96201 8.23958 2.82557 8.18213 2.68314 8.18213H0.53658C0.240304 8.18213 0 8.4264 0 8.72754C0 9.02888 0.240313 9.27315 0.53658 9.27315H2.68314C2.82557 9.27315 2.96201 9.21569 3.06252 9.11334C3.16321 9.01099 3.21973 8.87231 3.21973 8.72753V8.72755Z" fill="#C5C4C3"/>
<path d="M4.29252 10.9092H2.14596C1.84949 10.9092 1.60938 11.1534 1.60938 11.4546C1.60938 11.7559 1.8495 12.0002 2.14596 12.0002H4.29252C4.58879 12.0002 4.8291 11.7559 4.8291 11.4546C4.8291 11.1534 4.58878 10.9092 4.29252 10.9092Z" fill="#C5C4C3"/>
</svg>
