<svg width="26" height="18" viewBox="0 0 26 18" fill="none" xmlns="http://www.w3.org/2000/svg">
<rect y="2" width="10" height="2" fill="white"/>
<path d="M22.0043 11.6155C21.7003 11.3043 21.7003 10.7998 22.0043 10.4887C22.3084 10.1775 22.8013 10.1775 23.1053 10.4887L25.772 13.6398C26.076 13.951 26.076 14.4555 25.772 14.7666C25.468 15.0778 24.975 15.0778 24.671 14.7666L22.0043 11.6155Z" fill="white"/>
<path fill-rule="evenodd" clip-rule="evenodd" d="M18.5 12.5C21.9518 12.5 24.75 9.70178 24.75 6.25C24.75 2.79822 21.9518 0 18.5 0C15.0482 0 12.25 2.79822 12.25 6.25C12.25 9.70178 15.0482 12.5 18.5 12.5ZM18.5 10C20.5711 10 22.25 8.32107 22.25 6.25C22.25 4.17893 20.5711 2.5 18.5 2.5C16.4289 2.5 14.75 4.17893 14.75 6.25C14.75 8.32107 16.4289 10 18.5 10Z" fill="white"/>
<rect y="9" width="10" height="2" fill="white"/>
<rect y="16" width="19" height="2" fill="white"/>
</svg>
