<svg width="18" height="22" viewBox="0 0 18 22" fill="none" xmlns="http://www.w3.org/2000/svg">
<path d="M4.61114 7.13746C4.61114 4.82403 6.57949 2.94133 8.99789 2.94133C11.4163 2.94133 13.3846 4.82415 13.3846 7.13746C13.3846 9.45076 11.4163 11.3336 8.99789 11.3336C6.57949 11.3336 4.61114 9.45076 4.61114 7.13746ZM12.3074 7.13746C12.3074 5.3914 10.8233 3.97172 8.9978 3.97172C7.17242 3.97172 5.68825 5.39124 5.68825 7.13746C5.68825 8.88352 7.17226 10.3032 8.9978 10.3032C10.8232 10.3032 12.3074 8.88352 12.3074 7.13746ZM0.0354671 21.2984L2.35965 15.5831C2.43954 15.3839 2.64056 15.2543 2.86326 15.2543L5.91131 15.2541L5.37866 14.5131C5.06149 14.0731 4.71045 13.6283 4.37149 13.2001C2.9746 11.4262 1.52928 9.59204 1.52928 7.14649C1.52928 3.20494 4.8799 0 8.99797 0C13.116 0 16.4667 3.20502 16.4667 7.14413C16.4667 9.58736 15.0213 11.4216 13.6244 13.1977C13.2855 13.6285 12.9368 14.073 12.6173 14.513L12.0846 15.254H15.1351C15.3577 15.254 15.5564 15.3837 15.6387 15.5829L17.9629 21.2982C18.0281 21.458 18.0065 21.6363 17.9048 21.7753C17.8031 21.9167 17.6385 22 17.4592 22H0.54104C0.364244 22 0.197233 21.9167 0.0955067 21.7753C-0.0060482 21.6341 -0.0277061 21.4558 0.035181 21.2984L0.0354671 21.2984ZM12.7653 12.577C14.1163 10.8633 15.3896 9.24459 15.3896 7.14413C15.3896 3.77231 12.5232 1.03047 8.99821 1.03047C5.47325 1.03047 2.60681 3.77235 2.60681 7.14413C2.60681 9.24224 3.88271 10.8609 5.23356 12.577C5.57978 13.0147 5.93562 13.4686 6.26497 13.9271L8.99826 17.718L11.7315 13.927C12.0633 13.4686 12.4191 13.0146 12.7654 12.577H12.7653ZM16.6704 20.9692L14.7651 16.2844H11.3417L9.44128 18.9198C9.33957 19.0586 9.17497 19.1421 8.99817 19.1421C8.82138 19.1421 8.65437 19.0588 8.55506 18.9198L6.6546 16.2844H3.23129L1.32599 20.9692H16.6704Z" fill="#C5C4C3"/>
</svg>
