<svg width="116" height="14" viewBox="0 0 116 14" fill="none" xmlns="http://www.w3.org/2000/svg">
<path fill-rule="evenodd" clip-rule="evenodd" d="M7.91351 0L11.8703 6.99997L15.8271 14H7.91351H0L3.95677 6.99997L7.91351 0ZM7.91351 5.46044L4.63231 11.2621H11.1948L7.91351 5.46044Z" fill="#343434"/>
<path fill-rule="evenodd" clip-rule="evenodd" d="M14.3136 0L18.2703 6.99997L22.2196 14H19.1314C17.528 11.156 15.917 8.30441 14.3136 5.46044L12.8808 7.99346L12.1013 6.62081L11.3367 5.26326L14.3136 0Z" fill="#F07E1A"/>
<path fill-rule="evenodd" clip-rule="evenodd" d="M32.8146 0L36.7714 6.99997L40.7281 14H32.8146H24.9011L28.8579 6.99997L32.8146 0ZM32.8146 5.46044L29.5334 11.2621H36.0885L32.8146 5.46044Z" fill="#343434"/>
<path fill-rule="evenodd" clip-rule="evenodd" d="M57.3394 0L64.1913 4.04225L71.0432 0V8.07691V14H68.3707V11.429V7.43984V4.73238L64.1913 7.19717L60.0119 4.73238V7.43984V11.429V14H57.3394V8.07691V0Z" fill="#343434"/>
<path fill-rule="evenodd" clip-rule="evenodd" d="M54.668 13.9924H51.9881V6.59046L44.7501 13.9924H42.0776V0H44.7501V10.1245L54.668 0V3.86023V13.9924Z" fill="#343434"/>
<path fill-rule="evenodd" clip-rule="evenodd" d="M78.4894 8.53196H81.9486L80.2266 5.46044L78.4894 8.53196ZM83.4853 11.2621H76.9454L75.4013 14H72.3132L76.2696 6.99997L80.2266 0L84.183 6.99997L88.14 14H85.0148L83.4853 11.2621Z" fill="#343434"/>
<path fill-rule="evenodd" clip-rule="evenodd" d="M89.4778 0H92.1576V13.9924H89.4778V0Z" fill="#343434"/>
<path fill-rule="evenodd" clip-rule="evenodd" d="M99.3563 3.42036L95.86 6.99241H95.9045L102.705 13.9469V13.9924H98.9559L95.4664 10.4204L92.1187 6.99241V6.95449L98.9188 0H102.705L99.3563 3.42036Z" fill="#343434"/>
<path fill-rule="evenodd" clip-rule="evenodd" d="M109.526 0C112.533 0 115.086 1.97941 115.999 4.73239H113.052C112.325 3.52654 111.018 2.73022 109.526 2.73022C107.232 2.73022 105.376 4.62621 105.376 6.96967C105.376 9.31308 107.232 11.2167 109.526 11.2167C111.003 11.2167 112.295 10.4355 113.03 9.25242H115.985C115.057 11.9902 112.518 13.9469 109.526 13.9469C105.755 13.9469 102.704 10.8223 102.704 6.96967C102.704 3.117 105.755 0 109.526 0Z" fill="#343434"/>
</svg>
