<svg width="185" height="36" viewBox="0 0 185 36" fill="none" xmlns="http://www.w3.org/2000/svg">
<path fill-rule="evenodd" clip-rule="evenodd" d="M12.6206 0L18.931 10.7941L25.2413 21.5883H12.6206H0L6.31031 10.7941L12.6206 0ZM12.6206 8.42013L7.38768 17.3665H17.8536L12.6206 8.42013Z" fill="#141414"/>
<path fill-rule="evenodd" clip-rule="evenodd" d="M22.8258 0L29.1361 10.7941L35.4345 21.5883H30.5094C27.9521 17.2028 25.383 12.8056 22.8258 8.42013L20.5407 12.3261L19.2977 10.2094L18.0782 8.11607L22.8258 0Z" fill="#F07E1A"/>
<path fill-rule="evenodd" clip-rule="evenodd" d="M52.3297 0L58.64 10.7941L64.9503 21.5883H52.3297H39.7091L46.0194 10.7941L52.3297 0ZM52.3297 8.42013L47.0967 17.3665H57.5508L52.3297 8.42013Z" fill="#141414"/>
<path fill-rule="evenodd" clip-rule="evenodd" d="M91.4465 0L102.374 6.23324L113.302 0V12.4548V21.5883H109.039V17.6238V11.4724V7.29744L102.374 11.0982L95.7086 7.29744V11.4724V17.6238V21.5883H91.4465V12.4548V0Z" fill="#141414"/>
<path fill-rule="evenodd" clip-rule="evenodd" d="M87.1842 21.5766H82.9102V10.1626L71.367 21.5766H67.1049V0H71.367V15.6123L87.1842 0V5.95256V21.5766Z" fill="#141414"/>
<path fill-rule="evenodd" clip-rule="evenodd" d="M125.177 13.1565H130.694L127.947 8.42013L125.177 13.1565ZM133.144 17.3665H122.714L120.252 21.5883H115.327L121.637 10.7941L127.947 0L134.257 10.7941L140.568 21.5883H135.583L133.144 17.3665Z" fill="#141414"/>
<path fill-rule="evenodd" clip-rule="evenodd" d="M142.698 0H146.972V21.5766H142.698V0Z" fill="#141414"/>
<path fill-rule="evenodd" clip-rule="evenodd" d="M158.456 5.27428L152.88 10.7825H152.951L163.796 21.5064V21.5766H157.817L152.252 16.0685L146.913 10.7825V10.724L157.758 0H163.796L158.456 5.27428Z" fill="#141414"/>
<path fill-rule="evenodd" clip-rule="evenodd" d="M174.676 0C179.472 0 183.544 3.0523 185 7.29745H180.3C179.14 5.438 177.056 4.21006 174.676 4.21006C171.018 4.21006 168.058 7.13372 168.058 10.7474C168.058 14.361 171.018 17.2964 174.676 17.2964C177.033 17.2964 179.093 16.0918 180.265 14.2674H184.977C183.497 18.4892 179.447 21.5064 174.676 21.5064C168.662 21.5064 163.796 16.6882 163.796 10.7474C163.796 4.80649 168.662 0 174.676 0Z" fill="#141414"/>
<path d="M0 35.9065H0.568283V30.9246L2.73486 35.9065H3.20843L5.36317 30.9246V35.9065H5.93146V30.293H5.05535L2.97165 35.0761L0.876103 30.293H0V35.9065ZM7.05618 35.9065H10.1817V35.4036H7.62446V33.3336H10.0988V32.8308H7.62446V30.7959H10.1817V30.293H7.05618V35.9065ZM11.9576 35.9065H12.5259V30.7959H13.8282V30.293H10.6671V30.7959H11.9576V35.9065ZM13.9703 35.9065H14.5859L15.4029 34.0236H18.043L18.8717 35.9065H19.4755L17.0485 30.293H16.421L13.9703 35.9065ZM15.6278 33.5207L16.7288 30.9479L17.818 33.5207H15.6278ZM22.53 30.293H21.9973L19.6295 35.9065H20.2569L22.2577 30.9947L24.2467 35.9065H24.8742L22.53 30.293ZM27.9051 30.293H27.3723L25.0044 35.9065H25.6319L27.6328 30.9947L29.6218 35.9065H30.2493L27.9051 30.293ZM30.8886 30.293V35.9065H31.4805L34.8665 31.0882V35.9065H35.4348V30.293H34.831L31.4568 35.1113V30.293H30.8886ZM40.1942 30.293H39.6259V33.1465H38.2762C38.0749 33.1465 37.5777 33.1348 37.2935 32.8892C36.9739 32.632 36.9502 32.2226 36.9502 31.9653V30.293H36.3819V31.9653C36.3819 32.3981 36.4175 32.9126 36.891 33.2868C37.2935 33.6026 37.8618 33.6494 38.2762 33.6494H39.6259V35.9065H40.1942V30.293ZM41.3308 35.9065H44.4445V35.4036H41.8991V33.3336H44.3616V32.8308H41.8991V30.7959H44.4445V30.293H41.3308V35.9065ZM50.7667 31.7314C50.293 30.7608 49.3341 30.1995 48.1502 30.1995C46.5045 30.1995 45.2022 31.4157 45.2022 33.088C45.2022 34.7954 46.5282 36 48.1975 36C49.3104 36 50.2575 35.4152 50.7903 34.4446H50.1155C49.6538 35.1697 48.8841 35.4971 48.1975 35.4971C46.8478 35.4971 45.7705 34.468 45.7705 33.088C45.7705 31.8017 46.7294 30.7024 48.162 30.7024C49.3814 30.7024 49.9378 31.4858 50.0918 31.7314H50.7667ZM51.6901 30.293V35.9065H52.2583V30.293H51.6901ZM52.6491 33.0296L54.8985 35.9065H55.6089L53.3239 32.9711L55.5141 30.293H54.8393L52.6491 33.0296ZM55.8102 35.9065H56.4258L57.2545 34.0236H59.8947L60.7116 35.9065H61.3272L58.8883 30.293H58.2609L55.8102 35.9065ZM57.4676 33.5207L58.5806 30.9479L59.6697 33.5207H57.4676ZM65.4473 30.293H63.8608C63.4938 30.293 61.5996 30.3047 61.5996 32.1291C61.5996 33.0179 62.2625 33.7547 63.3044 33.8131L61.7534 35.9065H62.4638L64.3107 33.3687H63.8608C63.5412 33.3687 62.1678 33.3453 62.1678 32.0706C62.1678 31.4742 62.5229 30.7959 63.8608 30.7959H64.879V35.9065H65.4473V30.293ZM68.3715 35.9065H68.9398V30.9246L71.1064 35.9065H71.58L73.7347 30.9246V35.9065H74.303V30.293H73.4269L71.3432 35.0761L69.2477 30.293H68.3715V35.9065ZM75.4396 35.9065H78.5533V35.4036H76.0079V33.3336H78.4705V32.8308H76.0079V30.7959H78.5533V30.293H75.4396V35.9065ZM79.5478 30.293V35.9065H81.4302C82.4958 35.9065 83.2298 35.2398 83.2298 34.2575C83.2298 33.9768 83.1706 32.6085 81.4302 32.6085H80.1161V30.7959H82.6378V30.293H79.5478ZM80.1161 33.1231H81.4302C82.4247 33.1231 82.6615 33.8248 82.6615 34.2575C82.6615 34.6902 82.4247 35.4036 81.4302 35.4036H80.1161V33.1231ZM84.0112 35.9065H87.1249V35.4036H84.5795V33.3336H87.0421V32.8308H84.5795V30.7959H87.1249V30.293H84.0112V35.9065ZM90.5224 30.293H89.9782L87.6221 35.9065H88.2496L90.2503 30.9947L92.2395 35.9065H92.8547L90.5224 30.293ZM93.4941 30.293V35.9065H95.3764C96.4424 35.9065 97.1761 35.2398 97.1761 34.2575C97.1761 33.2634 96.525 32.6085 95.3764 32.6085H94.0625V30.293H93.4941ZM94.0625 33.1231H95.3764C96.3715 33.1231 96.6085 33.8248 96.6085 34.2575C96.6085 34.6902 96.3715 35.4036 95.3764 35.4036H94.0625V33.1231ZM99.7455 30.293V35.9065H100.337L103.724 31.0882V35.9065H104.291V30.293H103.688L100.314 35.1113V30.293H99.7455ZM107.216 35.9065H107.784V30.7959H110.732V35.9065H111.301V30.293H107.216V35.9065ZM114.828 30.293H114.296L111.94 35.9065H112.555L114.568 30.9947L116.557 35.9065H117.173L114.828 30.293ZM117.327 35.9065H117.943L118.759 34.0236H121.411L122.228 35.9065H122.843L120.405 30.293H119.778L117.327 35.9065ZM118.985 33.5207L120.097 30.9479L121.187 33.5207H118.985ZM128.823 31.7314C128.337 30.7608 127.379 30.1995 126.194 30.1995C124.561 30.1995 123.247 31.4157 123.247 33.088C123.247 34.7954 124.572 36 126.242 36C127.354 36 128.314 35.4152 128.834 34.4446H128.16C127.698 35.1697 126.94 35.4971 126.242 35.4971C124.892 35.4971 123.814 34.468 123.814 33.088C123.814 31.8017 124.773 30.7024 126.206 30.7024C127.425 30.7024 127.982 31.4858 128.136 31.7314H128.823ZM130.527 35.9065H131.096V30.7959H132.386V30.293H129.225V30.7959H130.527V35.9065ZM133.014 30.293V35.9065H133.606L136.992 31.0882V35.9065H137.56V30.293H136.956L133.582 35.1113V30.293H133.014ZM138.697 30.293V35.9065H139.264V30.293H138.697ZM139.655 33.0296L141.905 35.9065H142.615L140.33 32.9711L142.521 30.293H141.846L139.655 33.0296ZM146.061 30.1995C144.38 30.1995 143.053 31.4274 143.053 33.1114C143.053 34.7954 144.391 36 146.061 36C147.754 36 149.079 34.7487 149.079 33.0646C149.079 31.404 147.766 30.1995 146.061 30.1995ZM146.073 35.4971C144.711 35.4971 143.622 34.5265 143.622 33.1114C143.622 31.7198 144.687 30.7024 146.073 30.7024C147.446 30.7024 148.511 31.673 148.511 33.0646C148.511 34.468 147.457 35.4971 146.073 35.4971ZM149.979 35.9065H151.53C153.389 35.9065 153.579 34.7604 153.579 34.3159C153.579 33.7313 153.294 33.0997 152.596 32.8892C152.892 32.7138 153.282 32.3747 153.282 31.7665C153.282 30.3632 151.992 30.293 151.4 30.293H149.979V35.9065ZM150.548 35.4036V33.205H151.53C152.099 33.205 153.01 33.2985 153.01 34.3277C153.01 35.3101 152.063 35.4036 151.53 35.4036H150.548ZM150.548 32.7021V30.7959H151.4C151.815 30.7959 152.715 30.8193 152.715 31.7549C152.715 32.6085 151.874 32.7021 151.4 32.7021H150.548ZM153.898 35.9065H154.513L155.331 34.0236H157.983L158.8 35.9065H159.415L156.976 30.293H156.349L153.898 35.9065ZM155.555 33.5207L156.669 30.9479L157.758 33.5207H155.555ZM163.535 30.293H161.949C161.582 30.293 159.687 30.3047 159.687 32.1291C159.687 33.0179 160.351 33.7547 161.393 33.8131L159.842 35.9065H160.552L162.398 33.3687H161.949C161.629 33.3687 160.256 33.3453 160.256 32.0706C160.256 31.4742 160.599 30.7959 161.949 30.7959H162.967V35.9065H163.535V30.293ZM167.241 35.9065H167.809V30.7959H169.111V30.293H165.95V30.7959H167.241V35.9065ZM169.253 35.9065H169.869L170.687 34.0236H173.326L174.155 35.9065H174.771L172.332 30.293H171.704L169.253 35.9065ZM170.911 33.5207L172.012 30.9479L173.102 33.5207H170.911ZM175.422 35.9065H175.991V33.6494H177.209C178.654 33.6494 179.175 32.8074 179.175 31.9771C179.175 31.3338 178.879 30.293 177.209 30.293H175.422V35.9065ZM175.991 30.7959H177.222C178.239 30.7959 178.607 31.3806 178.607 31.9771C178.607 32.5617 178.239 33.1465 177.222 33.1465H175.991V30.7959ZM179.483 35.9065H180.098L180.915 34.0236H183.556L184.384 35.9065H185L182.561 30.293H181.934L179.483 35.9065ZM181.14 33.5207L182.241 30.9479L183.33 33.5207H181.14Z" fill="#141414"/>
</svg>
