<svg width="20" height="20" viewBox="0 0 20 20" fill="none" xmlns="http://www.w3.org/2000/svg">
<path d="M13.9786 15.4873C13.5584 15.0724 13.5584 14.3998 13.9786 13.9849C14.3987 13.57 15.0799 13.57 15.5 13.9849L19.185 18.1864C19.6051 18.6013 19.6051 19.274 19.185 19.6889C18.7649 20.1037 18.0837 20.1037 17.6636 19.6889L13.9786 15.4873Z" fill="white"/>
<path fill-rule="evenodd" clip-rule="evenodd" d="M8.97058 16.6179C13.6488 16.6179 17.4412 12.8979 17.4412 8.30897C17.4412 3.72005 13.6488 0 8.97058 0C4.29241 0 0.5 3.72005 0.5 8.30897C0.5 12.8979 4.29241 16.6179 8.97058 16.6179ZM8.97104 14.7717C12.6096 14.7717 15.5593 11.8784 15.5593 8.30921C15.5593 4.74006 12.6096 1.84668 8.97104 1.84668C5.33246 1.84668 2.38281 4.74006 2.38281 8.30921C2.38281 11.8784 5.33246 14.7717 8.97104 14.7717Z" fill="white"/>
</svg>
