<svg width="19" height="20" viewBox="0 0 19 20" fill="none" xmlns="http://www.w3.org/2000/svg">
<path d="M13.4793 15.4873C13.0592 15.0724 13.0592 14.3998 13.4793 13.9849C13.8994 13.57 14.5806 13.57 15.0007 13.9849L18.6857 18.1864C19.1059 18.6013 19.1059 19.274 18.6857 19.6889C18.2656 20.1037 17.5844 20.1037 17.1643 19.6889L13.4793 15.4873Z" fill="#525252"/>
<path fill-rule="evenodd" clip-rule="evenodd" d="M8.47058 16.6179C13.1488 16.6179 16.9412 12.8979 16.9412 8.30897C16.9412 3.72005 13.1488 0 8.47058 0C3.79241 0 0 3.72005 0 8.30897C0 12.8979 3.79241 16.6179 8.47058 16.6179ZM8.47104 14.7715C12.1096 14.7715 15.0593 11.8781 15.0593 8.30896C15.0593 4.7398 12.1096 1.84642 8.47104 1.84642C4.83246 1.84642 1.88281 4.7398 1.88281 8.30896C1.88281 11.8781 4.83246 14.7715 8.47104 14.7715Z" fill="#525252"/>
</svg>
