<svg width="90" height="53" viewBox="0 0 90 53" fill="none" xmlns="http://www.w3.org/2000/svg">
<g clip-path="url(#clip0_633_755)">
<path d="M87.0927 24.5604C87.6961 24.5604 88.1854 24.0837 88.1854 23.4957C88.1854 22.9076 87.6961 22.4309 87.0927 22.4309C86.4892 22.4309 86 22.9076 86 23.4957C86 24.0837 86.4892 24.5604 87.0927 24.5604Z" fill="#FFBD80"/>
<path d="M24.5814 16.4465C24.4658 16.5254 24.3339 16.5787 24.1949 16.6026C24.0559 16.6265 23.9132 16.6204 23.7769 16.5848C23.6406 16.5491 23.514 16.4848 23.406 16.3963C23.2979 16.3078 23.2111 16.1973 23.1516 16.0725L19.7383 16.4093L20.5649 14.87L23.6795 14.7862C23.9012 14.7028 24.1465 14.7014 24.3691 14.7825C24.5917 14.8636 24.7761 15.0214 24.8872 15.226C24.9984 15.4307 25.0287 15.6679 24.9723 15.8929C24.9159 16.1178 24.7769 16.3148 24.5814 16.4465V16.4465Z" fill="#FFB6B6"/>
<path d="M14.7321 17.9612L7.21092 14.9242C6.61501 14.6829 6.1417 14.221 5.89482 13.64C5.64795 13.059 5.64768 12.4063 5.89408 11.8251V11.8251C6.03086 11.5035 6.23864 11.2151 6.50264 10.9806C6.76665 10.746 7.08041 10.5709 7.42166 10.4678C7.76291 10.3647 8.12328 10.336 8.47717 10.3838C8.83107 10.4317 9.16982 10.5548 9.46937 10.7446L15.5294 14.5837L21.8361 14.2725L22.3083 16.1863L14.7321 17.9612Z" fill="#FF7A00"/>
<path d="M13.3464 50.6098H14.5506L15.1235 46.0837L13.3462 46.0839L13.3464 50.6098Z" fill="#FFB6B6"/>
<path d="M12.9385 50.0311L14.8421 49.9204V50.7152L16.6519 51.9331C16.7413 51.9933 16.8087 52.0797 16.8441 52.1798C16.8795 52.2798 16.8812 52.3883 16.8489 52.4894C16.8165 52.5904 16.7519 52.6788 16.6644 52.7415C16.5769 52.8042 16.4711 52.8381 16.3625 52.8381H14.0961L13.7055 52.0519L13.553 52.8381H12.6985L12.9385 50.0311Z" fill="#2F2E41"/>
<path d="M5.59861 50.6098H6.80278L7.37566 46.0837L5.59839 46.0839L5.59861 50.6098Z" fill="#FFB6B6"/>
<path d="M5.19096 50.0311L7.09457 49.9204V50.7152L8.90439 51.9331C8.99378 51.9933 9.06111 52.0797 9.09654 52.1798C9.13196 52.2798 9.13363 52.3883 9.1013 52.4894C9.06897 52.5904 9.00434 52.6788 8.91683 52.7415C8.82933 52.8042 8.72354 52.8381 8.6149 52.8381H6.34858L5.95795 52.0519L5.80542 52.8381H4.95093L5.19096 50.0311Z" fill="#2F2E41"/>
<path d="M11.6862 25.5793L16.381 34.6556C16.6383 35.1515 16.7179 35.717 16.607 36.2621C16.5116 36.7278 16.3652 37.1823 16.1703 37.6176L15.5403 44.9011L14.9758 47.1857L12.9451 47.3545C12.9451 47.3545 13.1023 45.4395 12.552 42.7541C12.0017 40.0688 12.9451 36.1579 12.9451 36.1579C12.9451 36.1579 11.2145 33.3981 9.24704 32.0171C7.27957 30.6361 11.6862 25.5793 11.6862 25.5793Z" fill="#2F2E41"/>
<path d="M6.65101 21.4771C6.65101 21.4771 5.6771 23.1591 4.95758 24.0645C4.29285 24.8844 3.97105 25.9189 4.05683 26.9605C4.12671 27.7052 4.3953 28.5085 5.07769 29.1447C5.07769 29.1447 5.54935 30.2948 5.31352 30.9087V36.3548C5.31352 36.3548 4.05067 42.7854 5.15232 44.7026L5.62797 49.0059C5.62797 49.0059 7.29743 49.4624 7.37604 48.6964C7.37604 48.6964 7.59435 47.0131 7.67842 46.4759L7.74174 40.9722C7.75474 40.2571 7.98249 39.5614 8.39684 38.971C8.72439 38.5018 9.05193 37.773 9.09561 36.7368L11.6865 25.5795L12.2633 21.682L6.65101 21.4771Z" fill="#2F2E41"/>
<path d="M5.20071 15.4826L6.20775 20.3891L4.00146 25.4015L12.2437 22.3054L12.3556 22.0095L12.6283 21.0018L12.3052 17.8644C12.4187 17.6341 14.034 16.1798 12.3446 13.6229L10.5196 9.44887L7.10134 9.39819L7.08714 9.41202C6.28341 10.1939 5.69057 11.1573 5.36144 12.2164C5.03231 13.2756 4.97709 14.3976 5.20071 15.4826V15.4826Z" fill="#FF7A00"/>
<path d="M10.2135 29.9042C10.1009 29.8213 10.0084 29.7153 9.94232 29.5938C9.8763 29.4722 9.83842 29.338 9.83137 29.2007C9.82432 29.0633 9.84826 28.9261 9.90151 28.7987C9.95476 28.6714 10.036 28.5569 10.1396 28.4635L8.76221 25.4016L10.5194 25.6953L11.5579 28.5579C11.7075 28.7378 11.7842 28.9649 11.7734 29.1962C11.7626 29.4276 11.6652 29.647 11.4994 29.8129C11.3337 29.9789 11.1113 30.0798 10.8743 30.0967C10.6373 30.1135 10.4022 30.045 10.2135 29.9042Z" fill="#FFB6B6"/>
<path d="M5.70825 21.2358L6.36401 13.3283C6.41668 12.7016 6.72234 12.1208 7.21393 11.7134C7.70551 11.306 8.34288 11.1053 8.98617 11.1552V11.1552C9.34229 11.1833 9.68771 11.2874 9.9979 11.4601C10.3081 11.6329 10.5755 11.8701 10.781 12.1549C10.9865 12.4396 11.1252 12.765 11.1872 13.1079C11.2492 13.4508 11.2329 13.8027 11.1396 14.1388L9.25171 20.9377L11.4929 26.6905L9.76888 27.7162L5.70825 21.2358Z" fill="#FF7A00"/>
<path d="M3.12866 9.65038L11.4723 7.98811C11.7021 7.2413 12.1422 6.55556 10.927 5.38934C10.7388 4.492 10.2005 3.70086 9.42556 3.18251C8.65063 2.66416 7.69952 2.45905 6.77251 2.61037C4.85737 2.44428 3.78149 3.77063 3.78705 5.55091L3.12866 9.65038Z" fill="#2F2E41"/>
<path d="M7.99437 8.52733C9.56074 8.52733 10.8305 7.29 10.8305 5.76367C10.8305 4.23734 9.56074 3 7.99437 3C6.428 3 5.1582 4.23734 5.1582 5.76367C5.1582 7.29 6.428 8.52733 7.99437 8.52733Z" fill="#FFB8B8"/>
<path d="M5.85611 3.45156C6.23882 2.89311 6.83254 2.5047 7.50788 2.37096L8.04273 2.26441C8.72361 2.12876 9.43191 2.26223 10.0118 2.63546C10.5917 3.00869 10.9957 3.5911 11.1349 4.25458V4.25458C10.7506 4.74224 8.47202 5.11178 7.11378 5.27288C7.49415 6.61027 8.95642 7.70757 8.79823 8.52084L3.44974 9.58641L3.34039 9.06523C2.40202 6.86641 3.71096 4.61556 5.85611 3.45156Z" fill="#2F2E41"/>
<path d="M87.9046 4.99371H19.4134C19.3868 4.99323 19.3615 4.98426 19.3429 4.96871C19.3244 4.95317 19.314 4.93229 19.314 4.91055C19.314 4.88881 19.3244 4.86793 19.3429 4.85239C19.3615 4.83685 19.3868 4.82787 19.4134 4.82739H87.9046C87.9311 4.82787 87.9564 4.83685 87.975 4.85239C87.9936 4.86793 88.004 4.88881 88.004 4.91055C88.004 4.93229 87.9936 4.95317 87.975 4.96871C87.9564 4.98426 87.9311 4.99323 87.9046 4.99371Z" fill="#CACACA"/>
<path d="M22.2767 3.82953C22.7839 3.82953 23.195 3.41998 23.195 2.91477C23.195 2.40955 22.7839 2 22.2767 2C21.7695 2 21.3584 2.40955 21.3584 2.91477C21.3584 3.41998 21.7695 3.82953 22.2767 3.82953Z" fill="#A5A8B1"/>
<path d="M25.4491 3.82953C25.9562 3.82953 26.3674 3.41998 26.3674 2.91477C26.3674 2.40955 25.9562 2 25.4491 2C24.9419 2 24.5308 2.40955 24.5308 2.91477C24.5308 3.41998 24.9419 3.82953 25.4491 3.82953Z" fill="#A5A8B1"/>
<path d="M28.6214 3.82953C29.1286 3.82953 29.5397 3.41998 29.5397 2.91477C29.5397 2.40955 29.1286 2 28.6214 2C28.1143 2 27.7031 2.40955 27.7031 2.91477C27.7031 3.41998 28.1143 3.82953 28.6214 3.82953Z" fill="#A5A8B1"/>
<path d="M87.0157 2.55945H84.7617C84.7171 2.55849 84.6746 2.54055 84.6434 2.50946C84.6122 2.47837 84.5947 2.43661 84.5947 2.39313C84.5947 2.34964 84.6122 2.30789 84.6434 2.2768C84.6746 2.24571 84.7171 2.22777 84.7617 2.22681H87.0157C87.0603 2.22777 87.1028 2.24571 87.134 2.2768C87.1652 2.30789 87.1826 2.34964 87.1826 2.39313C87.1826 2.43661 87.1652 2.47837 87.134 2.50946C87.1028 2.54055 87.0603 2.55849 87.0157 2.55945V2.55945Z" fill="#A5A8B1"/>
<path d="M87.0157 3.18323H84.7617C84.7171 3.18227 84.6746 3.16432 84.6434 3.13324C84.6122 3.10215 84.5947 3.06039 84.5947 3.01691C84.5947 2.97342 84.6122 2.93166 84.6434 2.90058C84.6746 2.86949 84.7171 2.85155 84.7617 2.85059H87.0157C87.0603 2.85155 87.1028 2.86949 87.134 2.90058C87.1652 2.93166 87.1826 2.97342 87.1826 3.01691C87.1826 3.06039 87.1652 3.10215 87.134 3.13324C87.1028 3.16432 87.0603 3.18227 87.0157 3.18323V3.18323Z" fill="#A5A8B1"/>
<path d="M87.0157 3.80701H84.7617C84.7171 3.80605 84.6746 3.7881 84.6434 3.75702C84.6122 3.72593 84.5947 3.68417 84.5947 3.64069C84.5947 3.5972 84.6122 3.55544 84.6434 3.52436C84.6746 3.49327 84.7171 3.47533 84.7617 3.47437H87.0157C87.0603 3.47533 87.1028 3.49327 87.134 3.52436C87.1652 3.55544 87.1826 3.5972 87.1826 3.64069C87.1826 3.68417 87.1652 3.72593 87.134 3.75702C87.1028 3.7881 87.0603 3.80605 87.0157 3.80701V3.80701Z" fill="#A5A8B1"/>
<path d="M79.8303 41.1201H59.1601C58.5874 41.1194 58.0384 40.8975 57.6334 40.5028C57.2284 40.1082 57.0006 39.5732 57 39.0151V12.7277C57.0007 12.1696 57.2284 11.6346 57.6334 11.24C58.0384 10.8454 58.5874 10.6234 59.1601 10.6228H79.8303C80.403 10.6234 80.952 10.8454 81.357 11.24C81.7619 11.6346 81.9897 12.1696 81.9904 12.7277V39.0151C81.9897 39.5732 81.762 40.1082 81.357 40.5028C80.952 40.8975 80.403 41.1194 79.8303 41.1201Z" fill="#FDF9F0"/>
<path d="M78.1396 21.1871C78.0653 21.0154 77.8891 20.9032 77.6936 20.9031H64.99C64.8627 20.9037 64.7407 20.9518 64.6502 21.0368L60.9417 24.5501C60.8032 24.6812 60.7617 24.8785 60.8366 25.0499C60.9115 25.2214 61.0878 25.333 61.2833 25.3327H62.1134V30.3744C62.1134 30.6275 62.3296 30.8326 62.5961 30.8326C62.8627 30.8326 63.0787 30.6275 63.0787 30.3744V25.3327H65.2275V27.4238C65.2275 27.677 65.4437 27.882 65.7102 27.882C65.9768 27.882 66.1929 27.677 66.1929 27.4238V25.3327H72.7843V30.3744C72.7843 30.6275 73.0003 30.8326 73.2669 30.8326C73.5334 30.8326 73.7496 30.6275 73.7496 30.3744V25.3327H73.987C74.1145 25.3328 74.2368 25.2846 74.3268 25.1989L75.8984 23.7107V27.4239C75.8984 27.677 76.1144 27.8821 76.381 27.8821C76.6475 27.8821 76.8637 27.677 76.8637 27.4239V22.7962L78.0356 21.6855H78.0355C78.1731 21.5546 78.2142 21.358 78.1398 21.1871L78.1396 21.1871Z" fill="#3F3D56"/>
<path d="M81.009 10.1445L81.0069 10.1463C80.8069 9.94811 80.5364 9.83248 80.2514 9.82334C79.9664 9.8142 79.6886 9.91226 79.4758 10.0972C79.2629 10.2821 79.1312 10.5398 79.1079 10.8168C79.0847 11.0937 79.1717 11.3688 79.3509 11.585L79.3488 11.5868L80.829 13.2046L82.4892 11.7622C82.7094 11.571 82.8425 11.3023 82.8594 11.0154C82.8763 10.7284 82.7755 10.4467 82.5792 10.2322C82.3829 10.0176 82.1072 9.88786 81.8127 9.87142C81.5183 9.85497 81.2291 9.95318 81.009 10.1445V10.1445Z" fill="#FF7A00"/>
<path d="M11.468 52.9999H13.9072C13.9434 52.936 13.977 52.8705 14.0081 52.8041C14.2888 52.2185 14.4073 51.5649 14.5208 50.9245L14.7049 49.8843C14.1165 50.3012 13.5284 50.7178 12.9406 51.1341C12.749 51.2701 12.5531 51.4118 12.3691 51.5649C11.9816 51.8852 11.647 52.2554 11.516 52.7255C11.5092 52.7517 11.5025 52.7779 11.4974 52.8041C11.4835 52.8687 11.4737 52.9341 11.468 52.9999V52.9999Z" fill="#F0F0F0"/>
<path d="M11.1259 52.8042C11.1258 52.8083 11.126 52.8124 11.1267 52.8165C11.1349 52.8791 11.1501 52.9406 11.1721 52.9999H12.2673C12.3018 52.9371 12.331 52.8716 12.3547 52.8042C12.388 52.7142 12.4119 52.6212 12.4262 52.5265C12.4626 52.2052 12.4433 51.8801 12.369 51.565C12.348 51.4626 12.3253 51.3594 12.3026 51.2579L12.1732 50.678L11.5252 51.6928C11.3083 52.0327 11.083 52.407 11.1259 52.8042Z" fill="#F0F0F0"/>
<path d="M9.29441e-07 52.9017C-5.58135e-05 52.9145 0.00248611 52.9273 0.00748196 52.9391C0.0124778 52.951 0.0198306 52.9619 0.0291183 52.971C0.038406 52.9801 0.0494474 52.9874 0.0616127 52.9923C0.0737779 52.9973 0.0868279 52.9999 0.100018 52.9999H15.5068C15.5334 52.9999 15.559 52.9896 15.5778 52.9713C15.5966 52.9529 15.6072 52.928 15.6072 52.9021C15.6072 52.8761 15.5966 52.8512 15.5778 52.8329C15.559 52.8145 15.5334 52.8042 15.5068 52.8042H0.100018C0.0735098 52.8043 0.0481046 52.8145 0.0293607 52.8328C0.0106169 52.8511 6.04252e-05 52.8758 9.29441e-07 52.9017Z" fill="#CACACA"/>
<path d="M46.9649 41.1612H26.2675C25.694 41.1606 25.1442 40.9384 24.7387 40.5432C24.3332 40.1481 24.1051 39.6123 24.1045 39.0535V12.7314C24.1051 12.1726 24.3332 11.6369 24.7387 11.2418C25.1442 10.8467 25.694 10.6244 26.2675 10.6238H46.9649C47.5383 10.6244 48.0881 10.8467 48.4936 11.2418C48.8991 11.6369 49.1272 12.1726 49.1278 12.7314V39.0535C49.1272 39.6123 48.8991 40.1481 48.4936 40.5432C48.0881 40.9384 47.5383 41.1606 46.9649 41.1612V41.1612Z" fill="#FDF9F0"/>
<path d="M42.5353 16.1409H30.8473C30.0664 16.1409 29.4312 16.7542 29.4312 17.5079V35.4044C29.4312 35.5593 29.5612 35.6848 29.7216 35.6848C29.8821 35.6848 30.0121 35.5593 30.0121 35.4044V34.4583H43.3704V35.4044C43.3704 35.5593 43.5004 35.6848 43.6609 35.6848C43.8213 35.6848 43.9514 35.5593 43.9514 35.4044V33.2666L43.951 17.508C43.951 16.7542 43.3157 16.1409 42.535 16.1409L42.5353 16.1409ZM34.6857 26.4209C34.6857 26.5758 34.5557 26.7013 34.3953 26.7013C34.2348 26.7013 34.1048 26.5758 34.1048 26.4209V24.1314C34.1048 23.9765 34.2348 23.8509 34.3953 23.8509C34.5557 23.8509 34.6857 23.9765 34.6857 24.1314V26.4209ZM36.9227 33.8972H36.4598V16.7016H36.9227V33.8972ZM39.2775 26.4209C39.2775 26.5758 39.1474 26.7013 38.987 26.7013C38.8266 26.7013 38.6965 26.5758 38.6965 26.4209V24.1314C38.6965 23.9765 38.8266 23.8509 38.987 23.8509C39.1474 23.8509 39.2775 23.9765 39.2775 24.1314V26.4209Z" fill="#3F3D56"/>
<path d="M36.2494 44.4189C38.3155 44.4189 39.9903 42.7869 39.9903 40.7737C39.9903 38.7605 38.3155 37.1284 36.2494 37.1284C34.1834 37.1284 32.5085 38.7605 32.5085 40.7737C32.5085 42.7869 34.1834 44.4189 36.2494 44.4189Z" fill="#FF7A00"/>
<path d="M35.7395 42.6707C35.6749 42.6707 35.6112 42.6561 35.5534 42.6279C35.4956 42.5998 35.4454 42.5589 35.4066 42.5085L34.3861 41.1825C34.3532 41.1399 34.3292 41.0914 34.3156 41.0398C34.302 40.9882 34.2989 40.9345 34.3066 40.8817C34.3143 40.8289 34.3326 40.7782 34.3605 40.7323C34.3883 40.6864 34.4252 40.6464 34.4689 40.6144C34.5127 40.5824 34.5625 40.5592 34.6155 40.5459C34.6685 40.5327 34.7236 40.5298 34.7778 40.5374C34.8319 40.545 34.884 40.5629 34.931 40.5901C34.978 40.6173 35.0191 40.6533 35.0519 40.696L35.7195 41.5634L37.4344 39.0569C37.4647 39.0124 37.5036 38.9741 37.549 38.9443C37.5945 38.9146 37.6455 38.8938 37.6991 38.8832C37.7528 38.8727 37.8081 38.8726 37.8618 38.8829C37.9156 38.8932 37.9667 38.9138 38.0122 38.9433C38.0578 38.9729 38.0969 39.011 38.1273 39.0554C38.1578 39.0997 38.1789 39.1495 38.1896 39.2018C38.2002 39.2542 38.2002 39.308 38.1894 39.3604C38.1787 39.4127 38.1574 39.4624 38.1269 39.5067L36.0858 42.4902C36.0488 42.5441 35.9992 42.5887 35.9409 42.6201C35.8827 42.6515 35.8176 42.6688 35.7511 42.6706C35.7472 42.6707 35.7434 42.6707 35.7395 42.6707Z" fill="white"/>
<path d="M46.9648 41.2627H26.2674C25.6663 41.2621 25.0899 41.0291 24.6649 40.6148C24.2398 40.2006 24.0007 39.639 24 39.0532V12.7312C24.0007 12.1454 24.2398 11.5838 24.6649 11.1696C25.0899 10.7554 25.6663 10.5224 26.2674 10.5217H46.9648C47.5659 10.5224 48.1423 10.7554 48.5674 11.1696C48.9924 11.5838 49.2316 12.1454 49.2323 12.7312V39.0532C49.2316 39.639 48.9925 40.2006 48.5674 40.6149C48.1423 41.0291 47.566 41.2621 46.9648 41.2627V41.2627ZM26.2674 10.7253C25.7217 10.7259 25.1984 10.9374 24.8125 11.3135C24.4266 11.6895 24.2095 12.1994 24.2089 12.7312V39.0532C24.2095 39.585 24.4266 40.0949 24.8125 40.471C25.1984 40.847 25.7216 41.0585 26.2674 41.0591H46.9648C47.5106 41.0586 48.0338 40.847 48.4197 40.471C48.8056 40.0949 49.0227 39.5851 49.0233 39.0532V12.7312C49.0227 12.1994 48.8056 11.6895 48.4197 11.3135C48.0338 10.9374 47.5106 10.7259 46.9648 10.7253H26.2674Z" fill="#FF7A00"/>
<path d="M48.145 10.1449L48.1429 10.1467C47.9427 9.94828 47.6719 9.83249 47.3865 9.82334C47.101 9.81419 46.823 9.91238 46.6098 10.0976C46.3967 10.2827 46.2648 10.5407 46.2415 10.8181C46.2182 11.0954 46.3053 11.3708 46.4847 11.5873L46.4826 11.5892L47.9648 13.2091L49.6272 11.7648C49.8476 11.5733 49.981 11.3042 49.9979 11.0169C50.0148 10.7296 49.9139 10.4475 49.7173 10.2327C49.5208 10.0179 49.2447 9.88795 48.9498 9.87148C48.655 9.85501 48.3655 9.95336 48.145 10.1449V10.1449Z" fill="#FF7A00"/>
<path d="M46.0927 49.1295C46.6961 49.1295 47.1854 48.6528 47.1854 48.0647C47.1854 47.4767 46.6961 47 46.0927 47C45.4892 47 45 47.4767 45 48.0647C45 48.6528 45.4892 49.1295 46.0927 49.1295Z" fill="#FFBD80"/>
<path d="M54.7406 49.1295C55.3441 49.1295 55.8333 48.6528 55.8333 48.0647C55.8333 47.4767 55.3441 47 54.7406 47C54.1372 47 53.6479 47.4767 53.6479 48.0647C53.6479 48.6528 54.1372 49.1295 54.7406 49.1295Z" fill="#FFBD80"/>
<path d="M50.1269 49.1295C50.7303 49.1295 51.2195 48.6528 51.2195 48.0647C51.2195 47.4767 50.7303 47 50.1269 47C49.5234 47 49.0342 47.4767 49.0342 48.0647C49.0342 48.6528 49.5234 49.1295 50.1269 49.1295Z" fill="#FFBD80"/>
</g>
<defs>
<clipPath id="clip0_633_755">
<rect width="90" height="53" fill="white"/>
</clipPath>
</defs>
</svg>
