<svg width="90" height="53" viewBox="0 0 90 53" fill="none" xmlns="http://www.w3.org/2000/svg">
<g clip-path="url(#clip0_633_800)">
<path d="M82.9138 16.813H74.3352L70.0458 9.56569L74.3351 2.31836H82.9138L87.2031 9.56569L82.9138 16.813Z" fill="white"/>
<path d="M73.2483 19.3824H84.0017C84.1108 19.3823 84.218 19.3542 84.3125 19.3009C84.407 19.2477 84.4856 19.1712 84.5403 19.0791L89.917 9.99447C89.9714 9.90219 90 9.79761 90 9.69116C90 9.58471 89.9714 9.48013 89.917 9.38785L84.5402 0.303308C84.4855 0.211205 84.407 0.13472 84.3125 0.0814955C84.218 0.0282707 84.1108 0.000169225 84.0017 0H73.2483C73.1392 0.000167239 73.032 0.0282704 72.9375 0.0814955C72.843 0.134721 72.7645 0.211203 72.7098 0.303308L67.3331 9.38785C67.2786 9.48012 67.25 9.58471 67.25 9.69116C67.25 9.79761 67.2786 9.9022 67.3331 9.99447L72.7098 19.0791C72.7645 19.1712 72.843 19.2477 72.9375 19.301C73.032 19.3542 73.1392 19.3823 73.2483 19.3824ZM84.0017 0.242646C84.0672 0.242747 84.1315 0.25961 84.1882 0.291545C84.2449 0.32348 84.292 0.369368 84.3248 0.424631L89.7016 9.50918C89.7342 9.56454 89.7514 9.6273 89.7514 9.69116C89.7514 9.75503 89.7342 9.81778 89.7015 9.87315L84.3248 18.9578C84.292 19.0131 84.2449 19.059 84.1882 19.0909C84.1315 19.1228 84.0672 19.1397 84.0017 19.1398H73.2483C73.1828 19.1397 73.1185 19.1228 73.0618 19.0909C73.0051 19.059 72.958 19.0131 72.9252 18.9578L67.5485 9.87315C67.5158 9.81778 67.4986 9.75503 67.4986 9.69116C67.4986 9.62729 67.5158 9.56454 67.5485 9.50918L72.9252 0.424631C72.958 0.369368 73.0051 0.323477 73.0618 0.291541C73.1185 0.259606 73.1828 0.242746 73.2483 0.242646H84.0017Z" fill="#747474"/>
<path d="M78.6253 5.56445C79.4364 5.56445 80.2294 5.7991 80.9038 6.23871C81.5783 6.67833 82.1039 7.30318 82.4144 8.03424C82.7248 8.76529 82.806 9.56972 82.6478 10.3458C82.4895 11.1219 82.0989 11.8348 81.5253 12.3943C80.9517 12.9538 80.221 13.3349 79.4254 13.4892C78.6298 13.6436 77.8052 13.5644 77.0558 13.2616C76.3063 12.9588 75.6658 12.446 75.2151 11.788C74.7645 11.1301 74.5239 10.3566 74.5239 9.56529C74.5239 9.03989 74.63 8.51964 74.8361 8.03424C75.0422 7.54883 75.3443 7.10778 75.7252 6.73627C76.106 6.36476 76.5582 6.07006 77.0557 5.869C77.5533 5.66794 78.0867 5.56445 78.6253 5.56445ZM78.6253 6.7647C78.3819 6.7647 78.144 6.8351 77.9417 6.96698C77.7393 7.09887 77.5816 7.28632 77.4885 7.50563C77.3954 7.72495 77.371 7.96628 77.4185 8.19911C77.466 8.43193 77.5832 8.6458 77.7552 8.81366C77.9273 8.98152 78.1465 9.09583 78.3852 9.14214C78.6239 9.18845 78.8713 9.16468 79.0961 9.07384C79.3209 8.98299 79.5131 8.82916 79.6483 8.63178C79.7835 8.4344 79.8556 8.20234 79.8556 7.96495C79.8556 7.64663 79.726 7.34134 79.4953 7.11625C79.2645 6.89116 78.9516 6.76471 78.6253 6.76471V6.7647ZM78.6253 12.5428C79.1113 12.5407 79.5895 12.4229 80.0183 12.1996C80.4471 11.9764 80.8136 11.6545 81.086 11.2618C81.0663 10.4616 79.4455 10.0212 78.6253 10.0212C77.805 10.0212 76.1842 10.4616 76.1645 11.2618C76.4372 11.6542 76.8038 11.9759 77.2325 12.1991C77.6613 12.4223 78.1393 12.5403 78.6253 12.5428V12.5428Z" fill="#FF7A00"/>
<path d="M67.7473 42.5564H59.1686L54.8793 35.3091L59.1686 28.0618H67.7473L72.0366 35.3091L67.7473 42.5564Z" fill="white"/>
<path d="M58.0818 45.0001H68.8352C68.9443 44.9999 69.0515 44.9718 69.146 44.9186C69.2405 44.8654 69.319 44.7889 69.3738 44.6968L74.7505 35.6121C74.8049 35.5199 74.8335 35.4153 74.8335 35.3088C74.8335 35.2024 74.8049 35.0978 74.7505 35.0055L69.3737 25.921C69.319 25.8289 69.2405 25.7524 69.146 25.6992C69.0515 25.6459 68.9443 25.6178 68.8352 25.6177H58.0818C57.9727 25.6178 57.8655 25.6459 57.771 25.6992C57.6765 25.7524 57.598 25.8289 57.5433 25.921L52.1665 35.0055C52.1121 35.0978 52.0835 35.2024 52.0835 35.3088C52.0835 35.4153 52.1121 35.5199 52.1665 35.6121L57.5433 44.6968C57.598 44.7889 57.6765 44.8654 57.771 44.9186C57.8655 44.9719 57.9727 45 58.0818 45.0001ZM68.8352 25.8603C68.9007 25.8604 68.965 25.8773 69.0217 25.9092C69.0784 25.9412 69.1255 25.987 69.1583 26.0423L74.5351 35.1269C74.5677 35.1822 74.5849 35.245 74.5849 35.3088C74.5849 35.3727 74.5677 35.4355 74.535 35.4908L69.1583 44.5755C69.1255 44.6307 69.0784 44.6766 69.0217 44.7086C68.965 44.7405 68.9007 44.7574 68.8352 44.7575H58.0818C58.0163 44.7574 57.952 44.7405 57.8953 44.7086C57.8386 44.6766 57.7915 44.6307 57.7587 44.5755L52.382 35.4908C52.3493 35.4355 52.3321 35.3727 52.3321 35.3088C52.3321 35.245 52.3493 35.1822 52.382 35.1269L57.7587 26.0423C57.7915 25.987 57.8386 25.9412 57.8953 25.9092C57.952 25.8773 58.0163 25.8604 58.0818 25.8603L68.8352 25.8603Z" fill="#747474"/>
<path d="M63.4663 32.5215C63.6692 32.3138 63.912 32.1471 64.181 32.0309C64.45 31.9148 64.7398 31.8515 65.0338 31.8446C65.3278 31.8378 65.6204 31.8875 65.8948 31.9909C66.1691 32.0944 66.4199 32.2495 66.6327 32.4475C66.8456 32.6455 67.0164 32.8825 67.1354 33.1449C67.2543 33.4074 67.3191 33.6901 67.326 33.9769C67.333 34.2638 67.2819 34.5491 67.1758 34.8167C67.0696 35.0843 66.9104 35.3289 66.7074 35.5365C66.6829 35.5615 66.6578 35.586 66.6322 35.6098L63.3901 38.7725L60.2242 35.6841C59.811 35.2614 59.5837 34.6978 59.5908 34.1138C59.5979 33.5298 59.8389 32.9716 60.2623 32.5586C60.6857 32.1456 61.2578 31.9106 61.8565 31.9036C62.4552 31.8967 63.033 32.1184 63.4663 32.5215H63.4663Z" fill="#FF7A00"/>
<path d="M53.6638 16.929H45.0852L40.7958 9.68164L45.0852 2.43433H53.6638L57.9531 9.68164L53.6638 16.929Z" fill="white"/>
<path d="M43.9983 19.3824H54.7517C54.8608 19.3822 54.968 19.3541 55.0625 19.3009C55.157 19.2477 55.2355 19.1712 55.2902 19.0791L60.6669 9.99446C60.7214 9.90219 60.75 9.7976 60.75 9.69114C60.75 9.58469 60.7214 9.48011 60.6669 9.38784L55.2902 0.303308C55.2355 0.211205 55.157 0.134716 55.0625 0.0814917C54.968 0.0282669 54.8608 0.000169224 54.7517 0H43.9983C43.8892 0.000167239 43.782 0.0282667 43.6875 0.0814917C43.593 0.134717 43.5145 0.211203 43.4598 0.303308L38.0831 9.38784C38.0286 9.48011 38 9.5847 38 9.69115C38 9.7976 38.0286 9.90219 38.0831 9.99446L43.4598 19.0791C43.5145 19.1712 43.593 19.2477 43.6875 19.3009C43.782 19.3542 43.8892 19.3823 43.9983 19.3824ZM54.7517 0.242646C54.8172 0.242747 54.8815 0.259606 54.9382 0.291541C54.9949 0.323476 55.042 0.369368 55.0748 0.424631L60.4515 9.50917C60.4842 9.56453 60.5014 9.62728 60.5014 9.69115C60.5014 9.75502 60.4842 9.81777 60.4515 9.87314L55.0748 18.9578C55.042 19.0131 54.9949 19.0589 54.9382 19.0909C54.8815 19.1228 54.8172 19.1397 54.7517 19.1398H43.9983C43.9328 19.1397 43.8685 19.1228 43.8118 19.0909C43.7551 19.0589 43.708 19.0131 43.6752 18.9578L38.2985 9.87314C38.2658 9.81777 38.2486 9.75502 38.2486 9.69115C38.2486 9.62728 38.2658 9.56453 38.2985 9.50917L43.6752 0.424631C43.708 0.369368 43.7551 0.323476 43.8118 0.291541C43.8685 0.259606 43.9328 0.242745 43.9983 0.242646H54.7517Z" fill="#747474"/>
<path d="M46.734 7.25764C46.734 8.68052 49.3751 11.8041 49.3751 11.8041C49.3751 11.8041 52.0161 8.68051 52.0161 7.25764C52.0164 6.91931 51.9484 6.58424 51.8159 6.27156C51.6834 5.95888 51.4891 5.67471 51.2441 5.43528C50.9991 5.19585 50.7081 5.00584 50.3878 4.87611C50.0674 4.74638 49.7241 4.67948 49.3772 4.6792C49.0304 4.67892 48.6869 4.74528 48.3664 4.8745C48.0459 5.00372 47.7546 5.19326 47.5091 5.4323C47.2637 5.67134 47.0689 5.95519 46.9359 6.26766C46.8029 6.58013 46.7343 6.9151 46.734 7.25343L46.734 7.25764Z" fill="#FF7A00"/>
<path d="M49.3746 8.26987C48.8015 8.26987 48.337 7.81672 48.337 7.25774C48.337 6.69875 48.8015 6.24561 49.3746 6.24561C49.9476 6.24561 50.4121 6.69875 50.4121 7.25774C50.4121 7.81672 49.9476 8.26987 49.3746 8.26987Z" fill="white"/>
<path d="M49.4693 14.6844C48.8963 14.6844 48.4317 14.2313 48.4317 13.6723C48.4317 13.1133 48.8963 12.6602 49.4693 12.6602C50.0423 12.6602 50.5068 13.1133 50.5068 13.6723C50.5068 14.2313 50.0423 14.6844 49.4693 14.6844Z" fill="#FF7A00"/>
<path d="M1.06703 46.0665C1.84786 48.7234 4.1278 50.5832 6.50606 52.1631C6.83813 52.3838 7.17031 52.5993 7.50259 52.8098C7.50484 52.8108 7.50716 52.8128 7.50944 52.8138C7.52542 52.8239 7.54145 52.834 7.55634 52.8441C7.62492 52.8875 7.69352 52.9309 7.76153 52.9737L7.72417 52.9902C7.72417 52.9902 7.68749 53.0093 7.72762 52.9933C7.73957 52.9884 7.75208 52.984 7.764 52.979C9.14562 52.4325 10.5518 51.8457 11.6106 50.8218C12.7089 49.7586 13.3508 48.091 12.7561 46.6942C12.6779 46.5113 12.5791 46.3374 12.4617 46.176C12.4134 46.1082 12.3615 46.0434 12.3074 45.9798C11.9793 45.5871 11.5505 45.2872 11.0651 45.1109C10.5797 44.9346 10.0551 44.8883 9.54539 44.9767C9.03567 45.0652 8.55916 45.2852 8.16488 45.6142C7.77059 45.9431 7.47275 46.3691 7.30198 46.8484C7.12725 45.2528 8.46869 43.9162 9.75963 42.93C11.0511 41.9443 12.5186 40.8709 12.7683 39.2841C12.9078 38.4012 12.5948 37.5457 12.0246 36.8588C12.0069 36.838 11.9893 36.8171 11.9711 36.7968C11.277 35.9969 10.3008 35.4832 9.23746 35.3584C7.2571 35.1565 5.33348 36.1847 3.8948 37.5352C1.57923 39.7081 0.179371 43.0456 1.06703 46.0665Z" fill="#FFBD80"/>
<path d="M5.22028 43.0749C4.83574 43.628 4.5405 44.2301 4.34388 44.862C4.17761 45.4268 4.10361 46.0115 4.12433 46.5965C4.17796 47.8004 4.54351 48.9748 5.19022 50.0208C5.67738 50.8144 6.27106 51.5479 6.95717 52.2039C7.29315 52.4143 7.62924 52.6199 7.96544 52.8207C7.96772 52.8216 7.97006 52.8235 7.97236 52.8245C7.98854 52.8341 8.00474 52.8437 8.01981 52.8534C8.0892 52.8947 8.15861 52.9361 8.22742 52.977C8.22742 52.977 8.15251 53.011 8.19312 52.9956C8.20521 52.991 8.21787 52.9868 8.22993 52.9821C8.10464 52.0324 8.22737 51.0687 8.58785 50.1719C8.94833 49.2751 9.53604 48.4712 10.3018 47.8277C11.0693 47.1939 11.988 46.7368 12.9829 46.4937C12.9341 46.4291 12.8815 46.3673 12.8268 46.3067C12.4425 46.4063 12.0686 46.5371 11.7092 46.6977C10.4247 47.268 9.373 48.2055 8.70966 49.3714C8.1144 50.4302 7.85821 51.624 7.97117 52.8126C7.91373 52.7645 7.85623 52.7153 7.80046 52.6666C6.73821 51.751 5.79472 50.7 5.1562 49.4871C4.60225 48.4599 4.32998 47.3225 4.3634 46.1751C4.41551 44.924 4.95466 43.7652 5.73528 42.7564C6.59084 41.6801 7.60156 40.717 8.73935 39.8939C9.88599 39.0448 11.1407 38.3286 12.4755 37.7613C12.5056 37.7483 12.5292 37.7251 12.5413 37.6965C12.5534 37.6679 12.5532 37.6361 12.5407 37.6076C12.5318 37.5821 12.5123 37.5609 12.4866 37.5485C12.4733 37.5432 12.459 37.5408 12.4445 37.5413C12.4301 37.5419 12.416 37.5455 12.4033 37.5518C12.2385 37.6219 12.0749 37.693 11.9125 37.7672C10.5603 38.3851 9.29636 39.156 8.14971 40.0621C7.04213 40.9351 5.9994 41.9326 5.22028 43.0749Z" fill="white"/>
<path d="M0.11512 52.9994H43.8851C43.9156 52.9994 43.9448 52.9773 43.9664 52.938C43.9879 52.8986 44 52.8453 44 52.7896C44 52.734 43.9879 52.6806 43.9664 52.6413C43.9448 52.6019 43.9156 52.5798 43.8851 52.5798H0.11512C0.0846519 52.5798 0.0554314 52.6019 0.033886 52.6413C0.0123405 52.6806 0.000236511 52.734 0.000236511 52.7896C0.000236511 52.8453 0.0123405 52.8986 0.033886 52.938C0.0554314 52.9773 0.0846519 52.9994 0.11512 52.9994Z" fill="#747474"/>
<path d="M29.3587 28.496C29.2423 28.3454 29.1605 28.1711 29.1189 27.9855C29.0774 27.7999 29.0771 27.6074 29.1183 27.4217C29.1594 27.236 29.2409 27.0616 29.357 26.9107C29.4731 26.7597 29.621 26.636 29.7902 26.5482L29.5323 23.5866L31.2999 22.9915L31.6053 27.1789C31.7343 27.4721 31.751 27.8022 31.6522 28.1068C31.5533 28.4115 31.3459 28.6694 31.069 28.8317C30.7922 28.9941 30.4653 29.0496 30.1501 28.9877C29.835 28.9259 29.5536 28.751 29.3592 28.4962L29.3587 28.496Z" fill="#FFB8B8"/>
<path d="M20.5405 51.5226H22.131L22.8877 45.4045H20.5393L20.5405 51.5226Z" fill="#FFB8B8"/>
<path d="M23.2676 51.0693H20.1989V52.9952H25.1997C25.1997 52.4844 24.9961 51.9946 24.6338 51.6334C24.2715 51.2722 23.78 51.0693 23.2676 51.0693Z" fill="#2F2E41"/>
<path d="M24.1517 47.4627L25.6966 47.8412L27.8965 42.0806L25.616 41.522L24.1517 47.4627Z" fill="#FFB8B8"/>
<path d="M26.8871 47.6171L23.9074 46.8861L23.4457 48.7561L28.3014 49.9474C28.4239 49.4515 28.3437 48.9273 28.0784 48.4903C27.8132 48.0533 27.3847 47.7392 26.8871 47.6171Z" fill="#2F2E41"/>
<path d="M22.4023 49.5727C22.5476 49.5731 22.6879 49.5197 22.7959 49.4228C22.9039 49.3259 22.972 49.1925 22.9868 49.0484L24.8173 32.0469L26.4105 37.246L24.154 45.3663C24.1152 45.5055 24.1293 45.6541 24.1936 45.7836C24.258 45.913 24.368 46.0142 24.5027 46.0678L26.2967 46.7831C26.3706 46.8125 26.4496 46.8267 26.5292 46.8248C26.6087 46.823 26.687 46.8051 26.7594 46.7722C26.8318 46.7393 26.8968 46.6921 26.9503 46.6335C27.0039 46.5749 27.0451 46.5061 27.0712 46.4312L29.8366 38.5225C30.1394 37.6589 30.2733 36.7456 30.2312 35.8318L29.8453 27.2966L19.6791 27.7257L19.8377 48.8427C19.8396 48.9897 19.8965 49.1307 19.9972 49.2381C20.0979 49.3455 20.2352 49.4116 20.3822 49.4234L22.3565 49.5717C22.3719 49.5723 22.3872 49.5727 22.4023 49.5727Z" fill="#2F2E41"/>
<path d="M24.0865 8.40679C22.1985 8.40679 20.668 6.88125 20.668 4.99941C20.668 3.11757 22.1985 1.59204 24.0865 1.59204C25.9744 1.59204 27.5049 3.11757 27.5049 4.99941C27.5049 6.88125 25.9744 8.40679 24.0865 8.40679Z" fill="#FFB8B8"/>
<path d="M21.572 28.2805C22.4723 28.2805 23.5902 28.2071 24.7477 28.1312C26.3288 28.0274 27.9636 27.9202 29.1841 27.9907C29.3489 28.007 29.5152 27.9809 29.667 27.915C29.8188 27.8491 29.9512 27.7455 30.0515 27.6141C31.3095 26.0085 29.3695 19.747 29.286 19.4813L27.7071 12.4798L27.6392 12.4951L27.7071 12.4798C27.3592 10.9399 26.2498 9.80399 24.8104 9.51543C23.4631 9.24573 22.1599 9.78332 21.3242 10.9548C21.2798 11.0169 21.2355 11.0807 21.1912 11.1461C18.47 15.1633 20.0092 25.144 20.1123 25.7876C19.9685 25.9592 19.1912 26.9296 19.4048 27.6037C19.4918 27.878 19.7279 28.0649 20.1066 28.1587C20.5891 28.2539 21.0808 28.2946 21.5724 28.28L21.572 28.2805Z" fill="#FF7A00"/>
<path d="M29.1284 28.2834C29.438 28.2834 29.8557 28.1695 30.4188 27.9366C30.6609 27.8362 31.3974 27.5308 30.5032 19.7415C30.0639 15.9153 29.4347 12.1157 29.4284 12.0778L29.4224 12.0412L29.3885 12.026C29.3723 12.0186 27.7654 11.2844 27.4859 10.3409C27.4766 10.3083 27.4657 10.2766 27.4533 10.2459C27.3764 10.0362 27.2212 9.86414 27.0201 9.7657C26.8191 9.66727 26.5876 9.65004 26.3741 9.71761C26.1485 9.77134 25.9519 9.90859 25.8242 10.1015C25.6965 10.2944 25.6471 10.5286 25.6863 10.7564C25.7836 11.3718 25.9707 11.9697 26.2417 12.5311C26.9979 14.0863 27.5102 18.2091 27.5152 18.2505C27.5442 18.6026 28.2304 26.9451 28.3626 27.5781C28.4088 27.7993 28.4937 28.0698 28.743 28.201C28.8625 28.2598 28.9948 28.2884 29.1281 28.2843L29.1284 28.2834Z" fill="#2F2E41"/>
<path d="M25.3943 27.9641C25.4568 27.9641 25.5175 27.9433 25.5668 27.9051C26.5725 27.1433 24.9449 17.9094 23.9801 14.7235C23.7868 14.0853 23.6147 13.5391 23.4685 13.0995C23.202 12.3106 23.016 11.4969 22.9133 10.6708C22.8601 10.2233 22.7447 9.96775 22.5602 9.88937C22.432 9.83485 22.2818 9.87189 22.112 9.99938C21.2203 9.95554 20.3539 10.3185 19.5511 10.7181L18.8285 11.0775L18.0176 25.3874C18.0406 26.3007 19.8466 26.9454 20.6342 26.9866C21.8992 27.0527 24.1708 27.2581 25.1715 27.8896C25.2371 27.9351 25.3143 27.9609 25.3942 27.9639L25.3943 27.9641Z" fill="#2F2E41"/>
<path d="M29.9116 25.2785C29.9236 25.2785 29.9356 25.2785 29.9477 25.2774L31.5856 25.1769C31.6671 25.1719 31.7467 25.1501 31.8193 25.1128C31.8919 25.0755 31.956 25.0235 32.0073 24.9602C32.0587 24.8968 32.0963 24.8235 32.1176 24.7449C32.139 24.6664 32.1438 24.5842 32.1316 24.5037L31.3904 19.6094L29.9953 12.7422C29.9609 12.573 29.8913 12.413 29.7909 12.2724C29.6905 12.1317 29.5615 12.0137 29.4124 11.926C29.2633 11.8382 29.0974 11.7827 28.9254 11.763C28.7534 11.7432 28.5791 11.7597 28.4139 11.8114C28.1315 11.9013 27.8906 12.0888 27.7347 12.3401C27.5788 12.5914 27.5182 12.89 27.5638 13.182L28.6722 20.063L29.3285 24.7725C29.3486 24.9126 29.4187 25.0407 29.5257 25.1336C29.6328 25.2265 29.7698 25.2779 29.9118 25.2785H29.9116Z" fill="#2F2E41"/>
<path d="M24.3165 19.9212C24.2166 19.7592 24.0823 19.621 23.923 19.5163C23.7637 19.4116 23.5833 19.343 23.3946 19.3153C23.2058 19.2877 23.0133 19.3016 22.8305 19.3561C22.6477 19.4106 22.4791 19.5044 22.3366 19.6309L19.6511 18.3379L18.4648 19.7729L22.2829 21.5458C22.512 21.7703 22.8157 21.9032 23.1365 21.9194C23.4573 21.9357 23.7729 21.834 24.0236 21.6338C24.2742 21.4335 24.4425 21.1486 24.4965 20.833C24.5505 20.5173 24.4864 20.1929 24.3165 19.9212Z" fill="#FFB8B8"/>
<path d="M20.5859 21.3103C20.7181 21.3103 20.8465 21.2659 20.9504 21.1844C21.0542 21.1028 21.1276 20.9888 21.1585 20.8607L21.5482 19.2445C21.578 19.1229 21.5678 18.995 21.5192 18.8797C21.4706 18.7643 21.3861 18.6676 21.2782 18.6037L18.926 17.2003L20.1286 12.8116C20.2326 12.4358 20.1849 12.0343 19.9957 11.6932C19.8064 11.352 19.4907 11.0981 19.1161 10.9861C18.7415 10.874 18.3378 10.9125 17.9913 11.0935C17.6448 11.2744 17.3832 11.5833 17.2624 11.9541L15.9348 15.9947C15.7717 16.4872 15.7704 17.0188 15.9311 17.5121C16.0918 18.0054 16.4062 18.4348 16.8285 18.7378L20.2412 21.1989C20.3415 21.2713 20.4621 21.3103 20.5859 21.3103Z" fill="#2F2E41"/>
<path d="M22.8292 5.90767C22.8292 5.90767 23.2452 3.61498 24.1918 3.8889C25.1383 4.16283 27.5745 4.4431 27.579 3.36336C27.5835 2.28362 25.2859 1.32925 23.9312 1.45842C22.5766 1.58759 20.2732 1.98276 20.4 4.0078C20.5015 5.2832 20.897 6.51803 21.5556 7.61618L22.8292 5.90767Z" fill="#2F2E41"/>
</g>
<defs>
<clipPath id="clip0_633_800">
<rect width="90" height="53" fill="white" transform="matrix(-1 0 0 1 90 0)"/>
</clipPath>
</defs>
</svg>
