<svg width="90" height="53" viewBox="0 0 90 53" fill="none" xmlns="http://www.w3.org/2000/svg">
<g clip-path="url(#clip0_633_837)">
<path d="M34.5314 16.9313H34.2662V10.0074C34.2662 9.48112 34.1575 8.96002 33.9462 8.47382C33.7349 7.98762 33.4252 7.54585 33.0349 7.17373C32.6445 6.80162 32.181 6.50643 31.671 6.30504C31.1609 6.10365 30.6142 6 30.0621 6H14.6728C13.5578 6 12.4885 6.4222 11.7001 7.17373C10.9117 7.92525 10.4688 8.94454 10.4688 10.0074V47.9925C10.4687 48.5187 10.5775 49.0399 10.7888 49.5261C11 50.0122 11.3097 50.454 11.7001 50.8261C12.0905 51.1983 12.5539 51.4934 13.064 51.6948C13.5741 51.8962 14.1207 51.9999 14.6728 51.9999H30.0621C31.1771 51.9999 32.2464 51.5777 33.0348 50.8261C33.8233 50.0746 34.2662 49.0553 34.2662 47.9925V21.8598H34.5314V16.9313Z" fill="#3F3D56"/>
<path d="M30.2789 7.09521H28.2578C28.3508 7.31059 28.3863 7.54426 28.3611 7.77564C28.336 8.00702 28.2511 8.22902 28.1138 8.42207C27.9766 8.61513 27.7912 8.77331 27.574 8.88269C27.3568 8.99207 27.1145 9.04929 26.8684 9.0493H17.9983C17.7522 9.04929 17.5099 8.99207 17.2927 8.88269C17.0755 8.77331 16.8901 8.61513 16.7529 8.42207C16.6156 8.22902 16.5307 8.00703 16.5056 7.77564C16.4805 7.54426 16.5159 7.31059 16.6089 7.09521H14.7212C14.3064 7.09521 13.8957 7.17244 13.5124 7.32247C13.1292 7.47251 12.781 7.69241 12.4877 7.96964C12.1944 8.24687 11.9617 8.57599 11.8029 8.9382C11.6442 9.30042 11.5625 9.68864 11.5625 10.0807V47.9191C11.5625 48.3112 11.6442 48.6994 11.8029 49.0616C11.9617 49.4238 12.1943 49.753 12.4877 50.0302C12.781 50.3074 13.1292 50.5273 13.5124 50.6774C13.8956 50.8274 14.3064 50.9046 14.7212 50.9046H30.2789C30.6937 50.9046 31.1044 50.8274 31.4877 50.6774C31.8709 50.5273 32.2191 50.3074 32.5124 50.0302C32.8057 49.753 33.0384 49.4238 33.1972 49.0616C33.3559 48.6994 33.4376 48.3112 33.4376 47.9191V10.0807C33.4376 9.68864 33.3559 9.30042 33.1972 8.9382C33.0384 8.57599 32.8057 8.24687 32.5124 7.96964C32.2191 7.69241 31.8709 7.47251 31.4877 7.32247C31.1044 7.17244 30.6937 7.09521 30.2789 7.09521Z" fill="#FFF4E4"/>
<path d="M39.9088 51.9999H5.09138C5.06715 51.9999 5.0439 51.978 5.02677 51.939C5.00963 51.9 5 51.847 5 51.7918C5 51.7366 5.00963 51.6837 5.02677 51.6447C5.0439 51.6057 5.06715 51.5837 5.09138 51.5837H39.9088C39.933 51.5837 39.9562 51.6057 39.9734 51.6447C39.9905 51.6837 40.0002 51.7366 40.0002 51.7918C40.0002 51.847 39.9905 51.9 39.9734 51.939C39.9562 51.978 39.933 51.9999 39.9088 51.9999Z" fill="#747474"/>
<path d="M22.498 35.264C26.4353 35.264 29.6271 32.0634 29.6271 28.1152C29.6271 24.167 26.4353 20.9663 22.498 20.9663C18.5607 20.9663 15.3689 24.167 15.3689 28.1152C15.3689 32.0634 18.5607 35.264 22.498 35.264Z" fill="#FF7A00"/>
<path d="M21.7916 30.8423C21.6312 30.8426 21.4751 30.7906 21.3468 30.6941L21.3388 30.6881L19.6634 29.4029C19.5858 29.3432 19.5207 29.2688 19.4717 29.184C19.4228 29.0991 19.391 29.0053 19.3782 28.9081C19.3654 28.8109 19.3718 28.7122 19.3971 28.6174C19.4224 28.5227 19.466 28.4339 19.5255 28.3561C19.585 28.2783 19.6592 28.213 19.7438 28.1639C19.8285 28.1149 19.9219 28.083 20.0189 28.0702C20.1158 28.0573 20.2143 28.0638 20.3088 28.0891C20.4032 28.1144 20.4918 28.1582 20.5694 28.2178L21.6546 29.0523L24.219 25.6975C24.2785 25.6197 24.3526 25.5545 24.4373 25.5054C24.5219 25.4564 24.6153 25.4245 24.7122 25.4117C24.8091 25.3989 24.9076 25.4053 25.002 25.4306C25.0964 25.4559 25.1849 25.4997 25.2625 25.5593L25.2627 25.5595L25.2468 25.5816L25.2631 25.5595C25.4196 25.6801 25.522 25.858 25.5478 26.0542C25.5736 26.2504 25.5207 26.4489 25.4008 26.606L22.3845 30.5503C22.3147 30.6412 22.225 30.7147 22.1223 30.7652C22.0196 30.8157 21.9066 30.8418 21.7923 30.8414L21.7916 30.8423Z" fill="white"/>
<path d="M85.5096 44.759C85.7433 45.2914 85.8982 45.855 85.9695 46.4322C86.0256 46.9468 86.0045 47.467 85.9069 47.9754C85.6974 49.0201 85.2403 49.9992 84.5742 50.8303C84.0717 51.4612 83.4916 52.0259 82.8476 52.5112C82.5476 52.652 82.2482 52.7886 81.9493 52.921C81.9473 52.9215 81.9452 52.9229 81.9432 52.9234C81.9288 52.9298 81.9144 52.9361 81.9009 52.9426C81.8392 52.9699 81.7776 52.9971 81.7164 53.024L81.7447 53.0426L81.8331 53.0999C81.8024 53.0813 81.7721 53.0633 81.7415 53.0447C81.7324 53.0391 81.7228 53.0338 81.7137 53.0281C81.9459 52.2146 81.9801 51.3571 81.8133 50.5276C81.6464 49.6981 81.2835 48.9208 80.7549 48.2607C80.2234 47.6089 79.5457 47.0921 78.7769 46.7525C78.8251 46.7023 78.8761 46.6551 78.9286 46.6091C79.2247 46.7453 79.5083 46.9074 79.7759 47.0936C80.733 47.756 81.4517 48.7095 81.8256 49.8128C82.1594 50.8138 82.2011 51.8894 81.9458 52.9132C81.9988 52.8785 82.0519 52.843 82.1036 52.8075C83.0868 52.1436 83.9929 51.3462 84.6754 50.3683C85.2641 49.5419 85.6408 48.5832 85.7723 47.5767C85.9032 46.4772 85.6284 45.396 85.1382 44.4149C84.5969 43.3653 83.9149 42.3948 83.111 41.5302C82.3035 40.6419 81.3906 39.8558 80.3924 39.1895C80.3699 39.1743 80.3542 39.151 80.3483 39.1245C80.3425 39.0979 80.3471 39.0702 80.3611 39.0469C80.3718 39.0258 80.3904 39.0097 80.4129 39.0022C80.4243 38.9993 80.4362 38.999 80.4478 39.0013C80.4593 39.0036 80.4702 39.0086 80.4796 39.0157C80.6028 39.0981 80.725 39.1811 80.8457 39.2667C81.8508 39.9794 82.7637 40.8144 83.5633 41.7526C84.3359 42.6568 85.039 43.6615 85.5096 44.759Z" fill="#FFBD80"/>
<path d="M54.0763 3.07296C54.9237 3.07296 55.6106 2.38505 55.6106 1.53648C55.6106 0.687905 54.9237 0 54.0763 0C53.2289 0 52.542 0.687905 52.542 1.53648C52.542 2.38505 53.2289 3.07296 54.0763 3.07296Z" fill="#FFBD80"/>
<path d="M80.6781 40.7587C81.5255 40.7587 82.2124 40.0708 82.2124 39.2223C82.2124 38.3737 81.5255 37.6858 80.6781 37.6858C79.8307 37.6858 79.1438 38.3737 79.1438 39.2223C79.1438 40.0708 79.8307 40.7587 80.6781 40.7587Z" fill="#FFBD80"/>
<path d="M83.0709 23.9209C83.5876 23.9209 84.0064 23.5015 84.0064 22.9841C84.0064 22.4668 83.5876 22.0474 83.0709 22.0474C82.5543 22.0474 82.1355 22.4668 82.1355 22.9841C82.1355 23.5015 82.5543 23.9209 83.0709 23.9209Z" fill="#FFBD80"/>
<path d="M47.9354 17.3911C48.4521 17.3911 48.8709 16.9717 48.8709 16.4543C48.8709 15.937 48.4521 15.5176 47.9354 15.5176C47.4188 15.5176 47 15.937 47 16.4543C47 16.9717 47.4188 17.3911 47.9354 17.3911Z" fill="#FFBD80"/>
<path d="M78.9708 47.3181C79.4875 47.3181 79.9063 46.8987 79.9063 46.3813C79.9063 45.864 79.4875 45.4446 78.9708 45.4446C78.4542 45.4446 78.0354 45.864 78.0354 46.3813C78.0354 46.8987 78.4542 47.3181 78.9708 47.3181Z" fill="#FFBD80"/>
<path d="M51.2606 38.4509C51.7773 38.4509 52.1961 38.0315 52.1961 37.5142C52.1961 36.9968 51.7773 36.5774 51.2606 36.5774C50.744 36.5774 50.3252 36.9968 50.3252 37.5142C50.3252 38.0315 50.744 38.4509 51.2606 38.4509Z" fill="#FFBD80"/>
<path d="M52.9724 52.9997H89.9031C89.9288 52.9997 89.9534 52.9776 89.9716 52.9382C89.9898 52.8989 90 52.8455 90 52.7899C90 52.7342 89.9898 52.6809 89.9716 52.6415C89.9534 52.6022 89.9288 52.5801 89.9031 52.5801H52.9724C52.9467 52.5801 52.9221 52.6022 52.9039 52.6415C52.8857 52.6809 52.8755 52.7342 52.8755 52.7899C52.8755 52.8455 52.8857 52.8989 52.9039 52.9382C52.9221 52.9776 52.9467 52.9997 52.9724 52.9997Z" fill="#747474"/>
<path d="M85.8276 1.63542C85.8761 1.2875 85.7967 0.933681 85.6043 0.641021C85.4119 0.348361 85.1199 0.13719 84.7837 0.0475242C84.4475 -0.0421418 84.0905 -0.00407431 83.7803 0.154515C83.47 0.313103 83.2281 0.581196 83.1003 0.907988L80.1035 4.37994L80.9828 6.8618L83.9967 2.80497C84.1934 2.86863 84.4015 2.88794 84.6063 2.86155C84.8112 2.83515 85.0078 2.76368 85.1824 2.65217C85.3569 2.54067 85.5052 2.39184 85.6167 2.21617C85.7282 2.0405 85.8002 1.84226 85.8276 1.63542Z" fill="#FFB7B7"/>
<path d="M73.4048 15.145L83.3527 4.41605L82.0109 2.26025L69.5337 12.924L73.4048 15.145Z" fill="#3F3D56"/>
<path d="M71.1853 8.62649C73.1125 8.62649 74.6748 7.04768 74.6748 5.10011C74.6748 3.15255 73.1125 1.57373 71.1853 1.57373C69.2581 1.57373 67.6958 3.15255 67.6958 5.10011C67.6958 7.04768 69.2581 8.62649 71.1853 8.62649Z" fill="#2F2E41"/>
<path d="M71.4658 3.10748C72.2167 2.33799 73.1254 1.74419 74.1278 1.36788C74.7713 1.12697 75.4717 0.978121 76.1445 1.11494C76.8172 1.25175 77.4535 1.72207 77.6411 2.38911C77.7946 2.93456 77.6361 3.52184 77.398 4.0353C77.1598 4.54876 76.8418 5.02489 76.6492 5.55751C76.4527 6.10096 76.3936 6.68542 76.4773 7.25781C76.561 7.83021 76.7848 8.37242 77.1284 8.83522C77.4721 9.29803 77.9246 9.66677 78.4451 9.90799C78.9655 10.1492 79.5373 10.2552 80.1086 10.2165C79.4476 10.306 78.8383 10.62 78.1922 10.787C77.5461 10.9541 76.7835 10.9428 76.3034 10.475C75.7954 9.98012 75.7852 9.17545 75.8097 8.4628C75.8463 7.40342 75.8828 6.34404 75.9193 5.28465C75.9379 4.74438 75.9538 4.1868 75.761 3.68254C75.5682 3.17828 75.11 2.73672 74.5751 2.74131C74.1697 2.74479 73.8108 2.99298 73.4857 3.23775C73.1606 3.48252 72.8165 3.74366 72.4126 3.78006C72.0088 3.81647 71.5477 3.51447 71.5779 3.10589L71.4658 3.10748Z" fill="#2F2E41"/>
<path d="M57.9322 28.7775C57.5972 28.8715 57.2397 28.8381 56.9275 28.6836C56.6152 28.5291 56.3699 28.2642 56.238 27.9391C56.1061 27.614 56.0968 27.2513 56.2118 26.9197C56.3269 26.5881 56.5583 26.3107 56.8622 26.14L59.8768 22.6838L62.4266 23.2405L58.8404 26.7902C58.9285 26.9789 58.9747 27.1849 58.9755 27.3936C58.9764 27.6023 58.932 27.8086 58.8454 27.9981C58.7588 28.1876 58.6322 28.3555 58.4744 28.4902C58.3166 28.6249 58.1316 28.7229 57.9322 28.7775H57.9322Z" fill="#FFB7B7"/>
<path d="M67.8498 16.4043L60.3362 25.9353L58.0459 24.8727L66.8773 10.9783L67.8498 16.4043Z" fill="#3F3D56"/>
<path d="M61.8547 45.1844L60.064 45.156L60.2793 51.3238H61.8544L61.8547 45.1844Z" fill="#FFB7B7"/>
<path d="M62.2556 50.8041L59.1537 50.804H59.1535C58.6293 50.804 58.1265 51.0145 57.7558 51.3891C57.3851 51.7637 57.1768 52.2718 57.1768 52.8016V52.8665L62.2555 52.8667L62.2556 50.8041Z" fill="#2F2E41"/>
<path d="M73.7106 43.5476L71.7544 44.8167L75.6673 49.5739L76.9927 48.714L73.7106 43.5476Z" fill="#FFB7B7"/>
<path d="M77.0523 48.0588L74.442 49.7524L74.4419 49.7524C74.0008 50.0387 73.6902 50.4903 73.5786 51.0079C73.4669 51.5256 73.5633 52.0669 73.8465 52.5127L73.8812 52.5673L78.1549 49.7945L77.0523 48.0588Z" fill="#2F2E41"/>
<path d="M74.4075 24.7144C74.4075 24.7144 70.0612 10.1262 68.6644 9.92903C67.2676 9.7319 65.0171 13.6722 65.0171 13.6722C62.0992 17.4345 59.0903 29.6213 59.0903 29.6213C59.0903 29.6213 64.1062 29.9385 67.7728 31.9099C71.4393 33.8813 75.7664 31.8101 75.7664 31.8101L74.4075 24.7144Z" fill="#3F3D56"/>
<path opacity="0.1" d="M74.4075 24.7143C74.4075 24.7143 70.0612 10.1261 68.6644 9.92896C67.2676 9.73183 65.5887 13.7121 65.5887 13.7121C64.1347 19.7853 59.0903 29.6213 59.0903 29.6213C59.0903 29.6213 64.1062 29.9384 67.7728 31.9098C71.4393 33.8812 75.7664 31.81 75.7664 31.81L74.4075 24.7143Z" fill="black"/>
<path d="M70.8416 20.3492V27.6797L71.6952 38.2984L75.9602 46.3308L73.9246 47.8001L68.1088 40.1596L65.8085 32.5731L62.196 49.3674L59.4819 49.1714L61.3669 25.8864L64.9437 19.3323L70.8416 20.3492Z" fill="#2F2E41"/>
<path d="M66.4593 13.2597C65.1023 14.631 66.3624 16.1004 66.3624 16.1004L64.8115 19.6267L70.9182 21.292L73.0522 11.6553L71.5983 10.0881C68.6903 9.9901 68.6888 9.9292 68.6888 9.9292C68.1793 10.4331 66.4593 13.2597 66.4593 13.2597Z" fill="#FF7A00"/>
<path d="M73.2982 10.6573C73.0208 10.4504 72.7056 10.3012 72.3708 10.2183C72.036 10.1353 71.6882 10.1204 71.3476 10.1743C71.007 10.2281 70.6804 10.3498 70.3867 10.5321C70.0929 10.7144 69.8379 10.9539 69.6364 11.2365C68.1012 13.3966 66.6817 16.8847 68.6375 21.2349C71.778 28.2201 74.5109 31.7959 75.6219 31.7955C75.6704 31.7959 75.7187 31.7883 75.7647 31.7729C76.4486 31.5384 77.4373 30.369 77.6163 29.3384C77.6804 28.9696 77.6652 28.4558 77.2287 28.103C75.9748 27.0895 73.7239 23.9339 73.0217 19.7803C72.6336 17.4853 73.3862 15.3947 74.0858 14.0451C74.3813 13.4867 74.4677 12.8393 74.3293 12.2217C74.1908 11.6041 73.8367 11.0576 73.3319 10.6824L73.2982 10.6573Z" fill="#3F3D56"/>
<path d="M71.3646 8.28004C72.6094 7.59239 73.0668 6.01517 72.3864 4.75722C71.7059 3.49927 70.1452 3.03696 68.9004 3.72462C67.6556 4.41227 67.1981 5.9895 67.8786 7.24744C68.559 8.50539 70.1198 8.9677 71.3646 8.28004Z" fill="#FFB7B7"/>
<path d="M66.5195 5.80501H70.2286L70.2667 5.26686L70.4569 5.80501H71.028L71.1034 4.73842L71.4803 5.80501H72.5854V5.75216C72.5846 5.00962 72.2923 4.29772 71.7727 3.77266C71.2532 3.2476 70.5487 2.95225 69.8139 2.95142H69.291C68.5562 2.95225 67.8518 3.2476 67.3322 3.77266C66.8126 4.29772 66.5204 5.00962 66.5195 5.75216V5.80501Z" fill="#2F2E41"/>
<path d="M72.0246 7.74042L73.6074 7.22138V3.33691H70.6177L70.6917 3.4116C71.7215 4.45099 72.8669 8.13862 72.0246 7.74042Z" fill="#2F2E41"/>
</g>
<defs>
<clipPath id="clip0_633_837">
<rect width="90" height="53" fill="white"/>
</clipPath>
</defs>
</svg>
